<svg width="13" height="11" viewBox="0 0 13 11" fill="none" xmlns="http://www.w3.org/2000/svg">
<g opacity="0.8">
<path fill-rule="evenodd" clip-rule="evenodd" d="M6.88311 1.85217C7.03991 1.65859 7.01009 1.37456 6.81652 1.21776C6.62294 1.06096 6.33891 1.09078 6.18211 1.28435L2.59914 5.7077L1.13711 4.25531C0.960381 4.07974 0.674789 4.08069 0.499223 4.25742C0.323658 4.43415 0.324602 4.71974 0.501332 4.8953L2.31753 6.69953C2.40802 6.78943 2.53236 6.83681 2.65974 6.82993C2.78711 6.82306 2.90562 6.76257 2.98591 6.66344L6.88311 1.85217ZM9.87869 1.8649C10.0425 1.6772 10.0231 1.39226 9.83536 1.22849C9.64765 1.06471 9.36272 1.08411 9.19894 1.27182L5.31534 5.72286L5.04333 5.45615C4.86545 5.28175 4.57987 5.28456 4.40547 5.46244C4.23106 5.64031 4.23388 5.92589 4.41175 6.1003L5.02513 6.70171C5.11379 6.78864 5.23438 6.83518 5.35846 6.83035C5.48255 6.82552 5.59915 6.76975 5.68079 6.67618L9.87869 1.8649Z" fill="#3A58ED"/>
</g>
</svg>
