<?xml version="1.0" encoding="UTF-8"?>
<svg width="23" height="23" viewBox="0 0 23 23" fill="none" xmlns="http://www.w3.org/2000/svg">
<path d="M11.6609 21.9547C8.15086 21.9547 5.31055 17.347 5.31055 11.6539C5.31055 5.96093 8.15086 1.35938 11.6609 1.35938M11.6609 21.9547C11.6795 20.1501 11.6981 17.347 11.6981 11.6539C11.6981 5.96093 11.6795 4.60279 11.6609 1.35938" stroke="currentColor" stroke-width="1.11628" stroke-miterlimit="13.284" stroke-linecap="round" stroke-linejoin="round"/>
<path d="M11.6611 1.35938H11.7479C13.5898 1.39658 15.2518 2.63069 16.4301 4.58418C17.5402 6.42604 18.2162 8.91907 18.2162 11.6539C18.2162 13.0493 18.0363 14.3826 17.72 15.5919M11.6611 21.9547H11.7479C13.5898 21.9175 15.2518 20.6834 16.4301 18.7299M1.36035 11.6602H21.9558" stroke="currentColor" stroke-width="1.11628" stroke-miterlimit="13.284" stroke-linecap="round" stroke-linejoin="round"/>
<path d="M18.3157 3.80371C16.5235 4.74015 14.1979 5.31069 11.6614 5.31069C9.12501 5.31069 6.79943 4.74635 5.00098 3.80371M5.00098 19.5122C5.61493 19.1898 6.2909 18.9107 7.01648 18.6874C8.41183 18.2533 9.98702 18.0053 11.6552 18.0053H11.68C13.3917 18.0053 15.0041 18.2657 16.4242 18.7246" stroke="currentColor" stroke-width="1.11628" stroke-miterlimit="13.284" stroke-linecap="round" stroke-linejoin="round"/>
<path d="M17.1061 20.3988C15.4972 21.4058 13.6397 21.9448 11.7417 21.9554H11.5743C5.92469 21.9119 1.36035 17.3166 1.36035 11.6608C1.36035 5.99877 5.92469 1.40962 11.5743 1.36621H11.7417C17.3914 1.40962 21.9557 6.00497 21.9557 11.6608C21.9557 13.7321 21.3417 15.6608 20.2937 17.2732" stroke="currentColor" stroke-width="1.11628" stroke-miterlimit="13.284" stroke-linecap="round" stroke-linejoin="round"/>
<path d="M19.0526 19.127L20.8448 21.4588M14.916 13.7812L17.4276 21.3719L18.8044 18.8169L21.6261 18.1347L14.916 13.7812Z" stroke="currentColor" stroke-width="1.11628" stroke-miterlimit="10" stroke-linecap="round" stroke-linejoin="round"/>
</svg>
