<svg width="1894" height="431" viewBox="0 0 1894 431" fill="none" xmlns="http://www.w3.org/2000/svg">
<g clip-path="url(#clip0_125_142)">
<mask id="mask0_125_142" style="mask-type:luminance" maskUnits="userSpaceOnUse" x="-718" y="-554" width="2612" height="985">
<path d="M-717.331 390.666L1878.67 430.488L1893.15 -513.511L-702.85 -553.333L-717.331 390.666Z" fill="white"/>
</mask>
<g mask="url(#mask0_125_142)">
<path d="M1830.67 -562.032C1830.52 -119.004 1335.15 187.804 1109.07 189.626C906.403 191.26 849.235 -33.072 712.359 -197.886C626.232 -301.591 507.586 -378.123 401.632 -385.415C166.022 -401.635 -151.628 -187.397 -286.15 -97.4101C-475.456 29.2268 -779.28 128.693 -1043.53 131.879C-1333.08 135.372 -1560.36 278.371 -1548.32 425.041" stroke="#E8EFFF" stroke-width="0.054636" stroke-miterlimit="10" stroke-linecap="round" stroke-linejoin="round" stroke-dasharray="0.05 17.48"/>
<path d="M1839.51 -556.59C1837.05 -122.182 1348.65 183.575 1119.97 181.433C918.488 179.545 857.358 -38.7387 717.986 -196.105C630.07 -295.029 512.143 -367.119 406.146 -372.712C173.634 -384.978 -137.592 -176.69 -271.642 -89.3729C-460.687 33.4813 -762.418 123.657 -1024.14 124.987C-1312.8 125.744 -1542.51 265.783 -1538.36 415.25" stroke="#E8EFFF" stroke-width="0.311425" stroke-miterlimit="10" stroke-linecap="round" stroke-linejoin="round" stroke-dasharray="0.05 17.48"/>
<path d="M1848.33 -551.143C1843.57 -125.355 1362.18 179.406 1130.87 173.251C930.584 167.922 865.467 -44.3954 723.603 -194.314C633.893 -288.451 516.712 -356.125 410.656 -359.998C181.275 -368.38 -123.565 -165.972 -257.137 -81.3309C-445.928 37.7405 -745.564 119.255 -1004.75 118.093C-1292.53 116.804 -1524.67 253.194 -1528.4 405.463" stroke="#E8EFFF" stroke-width="0.568215" stroke-miterlimit="10" stroke-linecap="round" stroke-linejoin="round" stroke-dasharray="0.05 17.48"/>
<path d="M1857.15 -545.702C1850.09 -128.533 1375.74 175.275 1141.77 165.058C942.714 156.366 873.966 -50.4452 729.229 -192.534C637.968 -282.127 521.197 -341.965 415.168 -347.296C189.194 -358.663 -109.536 -155.266 -242.629 -73.3001C-431.16 41.9831 -728.747 116.327 -985.356 111.194C-1272.22 105.455 -1506.82 240.599 -1518.43 395.666" stroke="#E8EFFF" stroke-width="0.825004" stroke-miterlimit="10" stroke-linecap="round" stroke-linejoin="round" stroke-dasharray="0.05 17.48"/>
<path d="M1865.98 -540.256C1856.62 -131.706 1389.34 171.211 1152.67 156.87C954.86 144.885 882.184 -56.2427 734.849 -190.748C641.86 -275.641 525.819 -330.009 419.681 -334.588C196.871 -344.197 -95.3364 -144.278 -228.122 -65.2639C-416.164 46.6335 -711.868 109.745 -965.965 104.301C-1252 98.1753 -1488.97 228.004 -1508.47 385.879" stroke="#E8EFFF" stroke-width="1.08179" stroke-miterlimit="10" stroke-linecap="round" stroke-linejoin="round" stroke-dasharray="0.05 17.48"/>
<path d="M1874.81 -534.813C1863.15 -134.884 1402.98 167.202 1163.57 148.684C967.024 133.478 890.387 -62.0445 740.472 -188.962C645.745 -269.16 530.552 -323.258 424.197 -321.879C204.408 -319.021 -81.2669 -133.499 -213.612 -57.221C-401.351 50.9818 -695.024 104.972 -946.569 97.4136C-1231.73 88.8428 -1471.12 215.422 -1498.51 376.099" stroke="#E8EFFF" stroke-width="1.33858" stroke-miterlimit="10" stroke-linecap="round" stroke-linejoin="round" stroke-dasharray="0.05 17.48"/>
<path d="M1883.63 -529.368C1869.66 -138.064 1416.63 163.252 1174.47 140.489C979.202 122.134 898.574 -67.8544 746.094 -187.183C649.622 -262.681 535.198 -312.353 428.706 -309.178C212.168 -302.718 -67.215 -122.733 -199.108 -49.1915C-386.55 55.3165 -678.193 100.163 -927.181 90.5078C-1211.48 79.4803 -1453.27 202.82 -1488.55 366.294" stroke="#E8EFFF" stroke-width="1.59537" stroke-miterlimit="10" stroke-linecap="round" stroke-linejoin="round" stroke-dasharray="0.05 17.48"/>
<path d="M1892.46 -523.926C1876.19 -141.241 1430.31 159.365 1185.37 132.303C991.385 110.874 906.739 -73.6569 751.711 -185.396C653.479 -256.201 539.856 -301.461 433.216 -296.463C219.957 -286.478 -53.1565 -111.954 -184.603 -41.1487C-371.748 59.6646 -661.36 95.3569 -907.787 83.6208C-1191.23 70.1203 -1435.42 190.238 -1478.59 356.514" stroke="#E8EFFF" stroke-width="1.85216" stroke-miterlimit="10" stroke-linecap="round" stroke-linejoin="round" stroke-dasharray="0.05 17.48"/>
<path d="M1901.28 -518.479C1882.71 -144.414 1444 155.537 1196.27 124.115C1003.58 99.674 914.891 -79.4547 757.331 -183.61C657.334 -249.715 544.534 -290.591 437.723 -283.755C227.767 -270.321 -39.1116 -101.187 -170.107 -33.112C-356.965 63.9954 -644.54 90.5226 -888.405 76.7276C-1170.99 60.7375 -1417.58 177.649 -1468.64 346.722" stroke="#E8EFFF" stroke-width="2.10895" stroke-miterlimit="10" stroke-linecap="round" stroke-linejoin="round" stroke-dasharray="0.05 17.48"/>
<path d="M1910.11 -513.033C1889.23 -147.593 1457.7 151.774 1207.17 115.927C1015.78 88.5444 923.028 -85.2481 762.954 -181.831C661.174 -243.236 549.231 -279.755 442.238 -271.053C235.596 -254.251 -25.0588 -90.4258 -155.597 -25.076C-342.174 68.3256 -627.707 85.6714 -869.011 69.8338C-1150.75 51.3376 -1399.73 165.06 -1458.67 336.935" stroke="#E8EFFF" stroke-width="2.36574" stroke-miterlimit="10" stroke-linecap="round" stroke-linejoin="round" stroke-dasharray="0.05 17.48"/>
<path d="M1918.94 -507.591C1895.76 -150.771 1471.41 148.073 1218.07 107.735C1028 77.4704 931.153 -91.0408 768.58 -180.05C665.012 -236.751 553.937 -268.946 446.757 -258.35C243.452 -238.256 -11.0083 -79.6693 -141.084 -17.0445C-327.386 72.6511 -610.876 80.7991 -849.613 62.9299C-1130.51 41.9059 -1381.88 152.455 -1448.71 327.133" stroke="#E8EFFF" stroke-width="2.61707" stroke-miterlimit="10" stroke-linecap="round" stroke-linejoin="round" stroke-dasharray="0.05 17.48"/>
<path d="M1927.76 -502.145C1902.28 -153.944 1485.13 144.442 1228.97 99.5468C1040.2 66.4611 939.246 -96.8182 774.202 -178.265C668.835 -230.256 558.65 -258.158 451.266 -245.642C251.305 -222.333 3.0278 -68.9082 -126.579 -9.00828C-312.612 76.9702 -594.053 75.9096 -830.225 56.0362C-1110.28 32.4678 -1364.03 139.866 -1438.75 317.346" stroke="#E8EFFF" stroke-width="2.87385" stroke-miterlimit="10" stroke-linecap="round" stroke-linejoin="round" stroke-dasharray="0.05 17.48"/>
<path d="M1936.59 -496.704C1908.81 -157.123 1498.84 140.876 1239.87 91.3588C1052.4 55.5118 947.332 -102.585 779.823 -176.479C672.646 -223.755 563.368 -247.403 455.779 -232.934C259.18 -206.492 17.068 -58.1526 -112.071 -0.966743C-297.833 81.2893 -577.232 71.0091 -810.832 49.1478C-1090.04 23.0188 -1346.18 127.282 -1428.79 307.559" stroke="#E8EFFF" stroke-width="3.13064" stroke-miterlimit="10" stroke-linecap="round" stroke-linejoin="round" stroke-dasharray="0.05 17.48"/>
<path d="M1945.41 -491.258C1915.33 -160.296 1512.55 137.375 1250.77 83.1651C1064.6 44.6114 955.409 -108.347 785.445 -174.7C676.452 -217.25 568.099 -236.687 460.289 -220.232C267.052 -190.733 31.0988 -47.4085 -97.5673 7.06347C-283.07 85.5969 -560.409 66.0755 -791.443 42.2482C-1069.82 13.5364 -1328.34 114.686 -1418.83 297.766" stroke="#E8EFFF" stroke-width="3.38743" stroke-miterlimit="10" stroke-linecap="round" stroke-linejoin="round" stroke-dasharray="0.05 17.48"/>
<path d="M1954.24 -485.816C1921.86 -163.474 1526.26 133.947 1261.67 74.9783C1076.8 33.7724 963.479 -114.085 791.072 -172.913C680.252 -210.726 572.835 -225.997 464.808 -207.523C274.935 -175.044 45.1338 -36.6627 -83.0536 15.1008C-268.297 89.9007 -543.581 61.1325 -772.045 35.3501C-1049.58 4.03387 -1310.48 102.093 -1408.87 287.969" stroke="#E8EFFF" stroke-width="3.64422" stroke-miterlimit="10" stroke-linecap="round" stroke-linejoin="round" stroke-dasharray="0.05 17.48"/>
<path d="M1963.06 -480.369C1928.38 -166.653 1539.95 130.584 1272.57 66.7907C1088.97 22.9871 971.52 -119.803 796.686 -171.128C684.034 -204.199 577.565 -215.345 469.315 -194.81C282.807 -159.432 59.1568 -25.9125 -68.5519 23.1427C-253.547 94.2034 -526.765 56.1722 -752.659 28.4622C-1029.35 -5.48039 -1292.64 89.5093 -1398.91 278.188" stroke="#E8EFFF" stroke-width="3.90101" stroke-miterlimit="10" stroke-linecap="round" stroke-linejoin="round" stroke-dasharray="0.05 17.48"/>
<path d="M1971.89 -474.927C1934.9 -169.831 1553.64 127.286 1283.47 58.598C1101.15 12.2457 979.571 -125.515 802.311 -169.347C687.821 -197.66 582.301 -204.737 473.827 -182.107C290.68 -143.902 73.1796 -15.1839 -54.0452 31.1794C-238.791 98.4954 -509.944 51.1903 -733.267 21.569C-1009.12 -15.0218 -1274.79 76.915 -1388.95 268.396" stroke="#E8EFFF" stroke-width="4.1578" stroke-miterlimit="10" stroke-linecap="round" stroke-linejoin="round" stroke-dasharray="0.05 17.48"/>
<path d="M1980.71 -469.482C1941.42 -173.005 1567.3 124.063 1294.37 50.4146C1113.31 1.5572 987.606 -131.196 807.931 -167.563C691.603 -191.106 587.032 -194.163 478.339 -169.4C298.55 -128.444 87.203 -4.4513 -39.5379 39.2146C-224.041 102.78 -493.117 46.1851 -713.876 14.6743C-988.89 -24.5866 -1256.94 64.3248 -1378.99 258.608" stroke="#E8EFFF" stroke-width="4.41459" stroke-miterlimit="10" stroke-linecap="round" stroke-linejoin="round" stroke-dasharray="0.05 17.48"/>
<path d="M1989.54 -464.041C1947.95 -176.183 1580.95 120.901 1305.27 42.2219C1125.46 -9.097 995.649 -136.864 813.554 -165.782C695.382 -184.545 591.755 -183.632 482.849 -156.697C306.401 -113.062 101.218 6.27187 -25.0388 47.2458C-209.304 107.05 -476.303 41.1596 -694.492 7.77018C-968.667 -34.1826 -1239.1 51.7251 -1369.03 248.805" stroke="#E8EFFF" stroke-width="4.67138" stroke-miterlimit="10" stroke-linecap="round" stroke-linejoin="round" stroke-dasharray="0.05 17.48"/>
<path d="M1998.37 -458.594C1954.47 -179.356 1594.57 117.815 1316.17 34.034C1137.59 -19.7031 1003.68 -142.517 819.17 -163.997C699.16 -177.968 596.468 -173.14 487.359 -143.99C314.242 -97.7456 115.233 16.9889 -10.5345 55.282C-194.561 111.314 -459.478 36.1171 -675.103 0.876391C-948.433 -43.7901 -1221.26 39.1358 -1359.08 239.018" stroke="#E8EFFF" stroke-width="4.92817" stroke-miterlimit="10" stroke-linecap="round" stroke-linejoin="round" stroke-dasharray="0.05 17.48"/>
<path d="M2007.2 -453.147C1961 -182.534 1608.17 114.795 1327.08 25.8471C1149.73 -30.2701 1011.73 -148.147 824.802 -162.211C702.948 -171.38 601.185 -162.685 491.878 -131.281C322.071 -82.4945 129.252 27.7068 3.97922 63.3245C-179.814 115.579 -442.638 31.0592 -655.699 -6.0109C-928.179 -53.4238 -1203.4 26.553 -1349.1 229.233" stroke="#E8EFFF" stroke-width="5.18496" stroke-miterlimit="10" stroke-linecap="round" stroke-linejoin="round" stroke-dasharray="0.05 17.48"/>
<path d="M2016.02 -447.705C1967.52 -185.712 1621.74 111.834 1337.97 17.6543C1161.82 -40.805 1019.76 -153.766 830.417 -160.43C706.724 -164.781 605.87 -152.28 496.385 -118.578C329.868 -67.315 143.26 38.4079 18.4813 71.3557C-165.085 119.827 -425.809 25.9737 -636.313 -12.9095C-907.941 -63.0852 -1185.55 13.9588 -1339.15 219.441" stroke="#E8EFFF" stroke-width="5.44175" stroke-miterlimit="10" stroke-linecap="round" stroke-linejoin="round" stroke-dasharray="0.05 17.48"/>
<path d="M2024.85 -442.259C1974.05 -188.885 1635.28 108.943 1348.87 9.46655C1173.91 -51.3022 1027.81 -159.364 836.042 -158.645C710.515 -158.171 610.549 -141.919 500.902 -105.87C337.654 -52.1964 157.278 49.1087 32.9932 79.392C-150.345 124.064 -408.97 20.8715 -616.916 -19.8085C-887.687 -72.7742 -1167.7 1.3587 -1329.18 209.643" stroke="#E8EFFF" stroke-width="5.69854" stroke-miterlimit="10" stroke-linecap="round" stroke-linejoin="round" stroke-dasharray="0.05 17.48"/>
<path d="M2033.67 -436.819C1980.57 -192.065 1648.78 106.117 1359.77 1.27796C1185.97 -61.7679 1035.86 -164.951 841.656 -156.86C714.296 -151.552 615.191 -131.603 505.404 -93.1631C345.393 -37.1338 171.274 59.803 47.4896 87.4329C-135.621 128.3 -392.135 15.7575 -597.535 -26.6976C-867.438 -82.4859 -1149.86 -11.2259 -1319.23 199.861" stroke="#E8EFFF" stroke-width="5.95533" stroke-miterlimit="10" stroke-linecap="round" stroke-linejoin="round" stroke-dasharray="0.05 17.48"/>
<path d="M2042.49 -431.372C1987.09 -195.238 1662.24 103.356 1370.67 -6.90991C1198.02 -72.2004 1043.92 -170.527 847.278 -155.075C718.096 -144.926 619.825 -121.33 509.919 -80.4498C353.113 -22.1256 185.284 70.498 61.9987 95.4746C-120.89 132.525 -375.287 10.6225 -578.141 -33.5858C-847.176 -92.2186 -1132.02 -23.8097 -1309.27 190.074" stroke="#E8EFFF" stroke-width="6.21212" stroke-miterlimit="10" stroke-linecap="round" stroke-linejoin="round" stroke-dasharray="0.05 17.48"/>
<path d="M2051.32 -425.931C1993.62 -198.422 1675.68 100.655 1381.57 -15.1027C1210.05 -82.6108 1052 -176.091 852.901 -153.294C721.901 -138.294 624.433 -111.112 514.428 -67.747C360.796 -7.18295 199.289 81.1717 76.5033 103.506C-106.162 136.729 -358.433 5.4553 -558.752 -40.4846C-826.907 -101.989 -1114.17 -36.404 -1299.31 180.282" stroke="#E8EFFF" stroke-width="6.4689" stroke-miterlimit="10" stroke-linecap="round" stroke-linejoin="round" stroke-dasharray="0.05 17.48"/>
<path d="M2060.15 -420.484C2000.14 -201.594 1689.06 98.0253 1392.46 -23.2899C1222.05 -92.9885 1060.08 -181.644 858.525 -151.513C725.713 -131.656 629.011 -100.938 518.945 -55.0439C368.448 7.71027 213.301 91.8403 91.0149 111.537C-91.4226 140.923 -341.571 0.277558 -539.356 -47.3884C-806.619 -111.792 -1096.32 -49.0034 -1289.34 170.48" stroke="#E8EFFF" stroke-width="6.72569" stroke-miterlimit="10" stroke-linecap="round" stroke-linejoin="round" stroke-dasharray="0.05 17.48"/>
<path d="M2068.97 -415.043C2006.66 -204.773 1702.41 95.443 1403.37 -31.4832C1234.04 -103.351 1068.17 -187.192 864.153 -149.734C729.534 -125.013 633.555 -90.8146 523.466 -42.3416C376.067 22.5639 227.322 102.503 105.53 119.573C-76.6844 145.11 -324.694 -4.92266 -519.956 -54.2821C-786.322 -121.617 -1078.46 -61.5926 -1279.37 160.693" stroke="#E8EFFF" stroke-width="6.98248" stroke-miterlimit="10" stroke-linecap="round" stroke-linejoin="round" stroke-dasharray="0.05 17.48"/>
<path d="M2077.8 -409.597C2013.18 -207.946 1715.71 92.931 1414.27 -39.6657C1246 -113.681 1076.27 -192.724 869.77 -147.943C733.35 -118.359 638.055 -80.7299 527.97 -29.6285C383.62 37.3783 241.322 113.17 120.023 127.615C-61.968 149.292 -307.828 -10.1339 -500.578 -61.1706C-766.029 -131.464 -1060.62 -74.1821 -1269.43 150.906" stroke="#E8EFFF" stroke-width="7.23381" stroke-miterlimit="10" stroke-linecap="round" stroke-linejoin="round" stroke-dasharray="0.05 17.48"/>
<path d="M2086.63 -404.155C2019.71 -211.125 1728.97 90.4677 1425.17 -47.8589C1257.95 -124 1084.39 -198.266 875.395 -146.163C737.184 -111.705 642.526 -70.7001 532.487 -16.926C391.144 52.1486 255.335 123.816 134.535 135.646C-47.2271 153.447 -290.938 -15.372 -481.182 -68.0751C-745.707 -141.354 -1042.77 -86.7822 -1259.46 141.108" stroke="#E8EFFF" stroke-width="7.4906" stroke-miterlimit="10" stroke-linecap="round" stroke-linejoin="round" stroke-dasharray="0.05 17.48"/>
<path d="M2095.45 -398.709C2026.23 -214.303 1742.18 88.0697 1436.06 -56.0463C1269.86 -134.292 1092.51 -203.791 881.009 -144.377C741.013 -105.045 646.938 -60.7145 536.989 -4.21777C398.604 66.8912 269.337 134.457 149.032 143.682C-32.5018 157.602 -274.053 -20.6206 -461.801 -74.9683C-725.39 -151.265 -1024.93 -99.371 -1249.51 131.316" stroke="#E8EFFF" stroke-width="7.74739" stroke-miterlimit="10" stroke-linecap="round" stroke-linejoin="round" stroke-dasharray="0.05 17.48"/>
<path d="M2104.28 -393.267C2032.76 -217.481 1755.35 85.7202 1446.97 -64.239C1281.76 -144.573 1100.65 -209.321 886.639 -142.596C744.864 -98.3907 651.328 -50.773 541.511 8.48515C406.035 81.595 283.361 145.093 163.549 151.719C-17.7499 161.746 -257.14 -25.8908 -442.399 -81.8614C-705.029 -161.209 -1007.08 -111.96 -1239.54 121.53" stroke="#E8EFFF" stroke-width="8.00418" stroke-miterlimit="10" stroke-linecap="round" stroke-linejoin="round" stroke-dasharray="0.05 17.48"/>
<path d="M2113.1 -387.82C2039.28 -220.654 1768.46 83.4302 1457.86 -72.4261C1293.63 -154.838 1108.78 -214.846 892.254 -140.81C748.704 -91.7303 655.649 -40.8759 546.019 21.1938C413.397 96.2817 297.375 155.723 178.051 159.756C-3.00782 165.874 -240.226 -31.1768 -423.013 -88.7543C-684.671 -171.18 -989.231 -124.548 -1229.58 111.744" stroke="#E8EFFF" stroke-width="8.26097" stroke-miterlimit="10" stroke-linecap="round" stroke-linejoin="round" stroke-dasharray="0.05 17.48"/>
<path d="M2121.93 -382.373C2045.8 -223.826 1781.52 81.1883 1468.77 -80.608C1305.48 -165.082 1117.09 -219.948 897.878 -139.019C752.664 -84.7844 659.925 -31.0127 550.53 33.9129C420.709 110.962 311.399 166.359 192.557 167.804C11.7385 170.008 -223.297 -36.4686 -403.616 -95.642C-664.282 -181.178 -971.382 -137.131 -1219.62 101.957" stroke="#E8EFFF" stroke-width="8.51776" stroke-miterlimit="10" stroke-linecap="round" stroke-linejoin="round" stroke-dasharray="0.05 17.48"/>
<path d="M2130.75 -376.933C2052.32 -227.006 1794.53 78.9935 1479.66 -88.8022C1317.3 -175.327 1125.2 -225.616 903.494 -137.24C756.492 -78.2188 664.146 -21.2062 555.039 46.6144C427.964 125.601 325.419 176.758 207.061 175.839C26.4934 173.79 -206.359 -41.7888 -384.228 -102.537C-643.884 -191.215 -953.534 -149.722 -1209.66 92.1695" stroke="#E8EFFF" stroke-width="8.77455" stroke-miterlimit="10" stroke-linecap="round" stroke-linejoin="round" stroke-dasharray="0.05 17.48"/>
<path d="M2139.58 -371.487C2058.85 -230.185 1807.49 76.8475 1490.57 -96.9904C1329.11 -185.551 1133.33 -231.279 909.122 -135.46C760.33 -71.6526 668.312 -11.4384 559.554 59.3163C435.165 140.235 339.455 187.464 221.57 183.869C41.2629 178.038 -189.29 -47.4453 -364.834 -109.436C-623.292 -201.758 -935.687 -162.322 -1199.7 82.3713" stroke="#E8EFFF" stroke-width="9.03133" stroke-miterlimit="10" stroke-linecap="round" stroke-linejoin="round" stroke-dasharray="0.05 17.48"/>
<path d="M2148.4 -366.045C2065.37 -233.363 1820.39 74.7512 1501.46 -105.183C1340.89 -195.773 1141.44 -236.946 914.739 -133.679C764.153 -65.0854 672.419 -1.70297 564.063 72.0196C442.306 154.864 353.482 198.172 236.075 191.901C56.0221 182.287 -172.432 -52.4864 -345.445 -116.334C-603.014 -211.391 -917.839 -174.916 -1189.74 72.5799" stroke="#E8EFFF" stroke-width="9.28813" stroke-miterlimit="10" stroke-linecap="round" stroke-linejoin="round" stroke-dasharray="0.05 17.48"/>
</g>
</g>
<defs>
<clipPath id="clip0_125_142">
<rect width="2596.3" height="944.11" fill="white" transform="translate(1879.12 430.277) rotate(-179.121)"/>
</clipPath>
</defs>
</svg>
