<svg width="1920" height="435" viewBox="0 0 1920 435" fill="none" xmlns="http://www.w3.org/2000/svg">
<g clip-path="url(#clip0_25_952)">
<mask id="mask0_25_952" style="mask-type:luminance" maskUnits="userSpaceOnUse" x="-170" y="-430" width="2293" height="865">
<path d="M-169.335 399.578L2110.17 434.545L2122.89 -394.367L-156.619 -429.334L-169.335 399.578Z" fill="white"/>
</mask>
<g mask="url(#mask0_25_952)">
<path d="M2067.64 -436.786C2067.5 -47.7702 1632.52 221.634 1434.01 223.233C1256.05 224.668 1205.85 27.6854 1085.66 -117.035C1010.04 -208.097 905.854 -275.299 812.817 -281.702C605.931 -295.945 327.007 -107.825 208.886 -28.8089C42.6586 82.3891 -224.125 169.729 -456.159 172.527C-710.408 175.594 -909.982 301.159 -899.405 429.948" stroke="#E8EFFF" stroke-width="0.0479751" stroke-miterlimit="10" stroke-linecap="round" stroke-linejoin="round" stroke-dasharray="0.05 15.35"/>
<path d="M2075.39 -432.008C2073.24 -50.5607 1644.38 217.92 1443.58 216.039C1266.66 214.381 1212.98 22.7094 1090.6 -115.472C1013.4 -202.335 909.854 -265.636 816.78 -270.548C612.614 -281.318 339.331 -98.4235 221.625 -21.7518C55.6261 86.1247 -209.319 165.307 -439.132 166.474C-692.6 167.14 -894.307 290.105 -890.658 421.35" stroke="#E8EFFF" stroke-width="0.273458" stroke-miterlimit="10" stroke-linecap="round" stroke-linejoin="round" stroke-dasharray="0.05 15.35"/>
<path d="M2083.14 -427.225C2078.96 -53.3462 1656.26 214.259 1453.15 208.855C1277.28 204.176 1220.1 17.7428 1095.53 -113.898C1016.76 -196.559 913.866 -255.983 820.74 -259.383C619.324 -266.743 351.648 -89.012 234.361 -14.6897C68.5862 89.8651 -194.52 161.442 -422.106 160.422C-674.798 159.29 -878.639 279.051 -881.914 412.757" stroke="#E8EFFF" stroke-width="0.498941" stroke-miterlimit="10" stroke-linecap="round" stroke-linejoin="round" stroke-dasharray="0.05 15.35"/>
<path d="M2090.89 -422.448C2084.69 -56.1382 1668.17 210.632 1462.72 201.66C1287.93 194.027 1227.57 12.4297 1100.47 -112.336C1020.34 -191.006 917.805 -243.549 824.703 -248.23C626.278 -258.212 363.967 -79.6117 247.1 -7.63884C81.5538 93.5897 -179.753 158.87 -405.078 154.363C-656.971 149.324 -862.964 267.992 -873.166 404.153" stroke="#E8EFFF" stroke-width="0.724424" stroke-miterlimit="10" stroke-linecap="round" stroke-linejoin="round" stroke-dasharray="0.05 15.35"/>
<path d="M2098.64 -417.665C2090.42 -58.9241 1680.11 207.063 1472.29 194.471C1298.6 183.947 1234.78 7.33953 1105.41 -110.768C1023.76 -185.311 921.863 -233.051 828.664 -237.071C633.018 -245.509 376.435 -69.9632 259.838 -0.581917C94.7211 97.6736 -164.932 153.091 -388.051 148.31C-639.21 142.932 -847.29 256.933 -864.42 395.56" stroke="#E8EFFF" stroke-width="0.949907" stroke-miterlimit="10" stroke-linecap="round" stroke-linejoin="round" stroke-dasharray="0.05 15.35"/>
<path d="M2106.39 -412.888C2096.15 -61.7158 1692.08 203.542 1481.87 187.281C1309.28 173.929 1241.98 2.24331 1110.35 -109.201C1027.17 -179.622 926.018 -227.125 832.629 -225.913C639.636 -223.404 388.789 -60.4997 272.579 6.47881C107.727 101.49 -150.143 148.898 -371.021 142.261C-621.418 134.735 -831.618 245.883 -855.671 386.97" stroke="#E8EFFF" stroke-width="1.17539" stroke-miterlimit="10" stroke-linecap="round" stroke-linejoin="round" stroke-dasharray="0.05 15.35"/>
<path d="M2114.14 -408.105C2101.87 -64.5068 1704.07 200.074 1491.44 180.086C1319.97 163.969 1249.17 -2.85705 1115.28 -107.638C1030.57 -173.932 930.098 -217.547 836.588 -214.76C646.45 -209.088 401.128 -51.0454 285.314 13.5306C120.724 105.298 -135.363 144.677 -353.996 136.198C-603.635 126.515 -815.947 234.819 -846.927 378.362" stroke="#E8EFFF" stroke-width="1.40087" stroke-miterlimit="10" stroke-linecap="round" stroke-linejoin="round" stroke-dasharray="0.05 15.35"/>
<path d="M2121.89 -403.326C2107.6 -67.2966 1716.08 196.661 1501.01 172.898C1330.67 154.082 1256.34 -7.95177 1120.22 -106.069C1033.96 -168.241 934.188 -207.983 840.549 -203.595C653.29 -194.827 413.473 -41.5802 298.051 20.5932C133.722 109.116 -120.582 140.457 -336.966 130.152C-585.852 118.297 -800.274 223.77 -838.178 369.775" stroke="#E8EFFF" stroke-width="1.62636" stroke-miterlimit="10" stroke-linecap="round" stroke-linejoin="round" stroke-dasharray="0.05 15.35"/>
<path d="M2129.64 -398.545C2113.33 -70.0836 1728.1 193.299 1510.58 165.708C1341.38 144.246 1263.5 -13.0438 1125.15 -104.501C1037.34 -162.547 938.297 -198.44 844.508 -192.437C660.148 -180.64 425.807 -32.1267 310.782 27.6489C146.704 112.918 -105.811 136.211 -319.946 124.097C-568.084 110.057 -784.607 212.715 -829.439 361.176" stroke="#E8EFFF" stroke-width="1.85184" stroke-miterlimit="10" stroke-linecap="round" stroke-linejoin="round" stroke-dasharray="0.05 15.35"/>
<path d="M2137.39 -393.762C2119.06 -72.8744 1740.13 189.995 1520.15 158.519C1352.09 134.474 1270.65 -18.1305 1130.09 -102.938C1040.72 -156.858 942.42 -188.924 848.471 -181.283C667.022 -166.529 438.145 -22.677 323.521 34.7058C159.69 116.72 -91.0319 131.951 -302.917 118.045C-550.311 101.803 -768.937 201.661 -820.691 352.582" stroke="#E8EFFF" stroke-width="2.07732" stroke-miterlimit="10" stroke-linecap="round" stroke-linejoin="round" stroke-dasharray="0.05 15.35"/>
<path d="M2145.14 -388.983C2124.79 -75.6645 1752.17 186.746 1529.72 151.325C1362.82 124.751 1277.78 -23.2165 1135.03 -101.374C1044.08 -151.163 946.551 -179.432 852.438 -170.128C673.919 -152.484 450.482 -13.2313 336.264 41.7586C172.675 120.519 -76.2533 127.674 -285.885 111.983C-532.535 93.5221 -753.257 190.594 -811.94 343.975" stroke="#E8EFFF" stroke-width="2.29801" stroke-miterlimit="10" stroke-linecap="round" stroke-linejoin="round" stroke-dasharray="0.05 15.35"/>
<path d="M2152.89 -384.202C2130.51 -78.4523 1764.22 183.556 1539.29 144.134C1373.53 115.082 1284.89 -28.291 1139.96 -99.8079C1047.44 -145.461 950.69 -169.961 856.397 -158.971C680.814 -138.504 462.806 -3.78366 349 48.8136C185.647 124.31 -61.4824 123.379 -268.861 105.928C-514.771 85.2331 -737.591 179.537 -803.197 335.38" stroke="#E8EFFF" stroke-width="2.52349" stroke-miterlimit="10" stroke-linecap="round" stroke-linejoin="round" stroke-dasharray="0.05 15.35"/>
<path d="M2160.64 -379.424C2136.24 -81.2432 1776.26 180.425 1548.86 136.945C1384.25 105.468 1291.99 -33.3543 1144.9 -98.2399C1050.79 -139.752 954.834 -160.517 860.362 -147.812C687.731 -124.594 475.136 5.66108 361.74 55.8752C198.625 128.103 -46.7106 119.076 -251.831 99.88C-497.002 76.9365 -721.915 168.488 -794.452 326.787" stroke="#E8EFFF" stroke-width="2.74897" stroke-miterlimit="10" stroke-linecap="round" stroke-linejoin="round" stroke-dasharray="0.05 15.35"/>
<path d="M2168.38 -374.641C2141.97 -84.0291 1788.3 177.352 1558.43 129.751C1394.96 95.8974 1299.08 -38.4128 1149.84 -96.6765C1054.13 -134.039 958.989 -151.107 864.322 -136.658C694.644 -110.755 487.456 15.0961 374.477 62.9271C211.589 131.886 -31.9378 114.745 -234.806 93.8223C-479.241 68.6109 -706.247 157.429 -785.708 318.189" stroke="#E8EFFF" stroke-width="2.97446" stroke-miterlimit="10" stroke-linecap="round" stroke-linejoin="round" stroke-dasharray="0.05 15.35"/>
<path d="M2176.14 -369.863C2147.7 -86.8192 1800.33 174.342 1568 122.562C1405.67 86.38 1306.16 -43.4516 1154.78 -95.1076C1057.47 -128.311 963.145 -141.719 868.288 -125.498C701.563 -96.9787 499.778 24.532 387.219 69.9848C224.559 135.665 -17.1642 110.405 -217.775 87.7654C-461.474 60.2671 -690.569 146.371 -776.957 309.586" stroke="#E8EFFF" stroke-width="3.19994" stroke-miterlimit="10" stroke-linecap="round" stroke-linejoin="round" stroke-dasharray="0.05 15.35"/>
<path d="M2183.88 -365.081C2153.43 -89.6109 1812.36 171.388 1577.57 115.372C1416.35 76.9088 1313.22 -48.4731 1159.71 -93.5405C1060.79 -122.58 967.299 -132.367 872.246 -114.335C708.476 -83.2707 512.092 33.9709 399.953 77.0455C237.512 139.443 -2.39795 106.048 -200.751 81.7165C-443.71 51.912 -674.899 135.321 -768.215 300.997" stroke="#E8EFFF" stroke-width="3.42542" stroke-miterlimit="10" stroke-linecap="round" stroke-linejoin="round" stroke-dasharray="0.05 15.35"/>
<path d="M2191.64 -360.302C2159.16 -92.4007 1824.38 168.493 1587.14 108.179C1427.05 67.4779 1320.29 -53.4879 1164.64 -91.9762C1064.11 -116.837 971.456 -123.052 876.207 -103.18C715.389 -69.6331 524.405 43.3923 412.69 84.1032C250.468 143.212 12.372 101.674 -183.725 75.6644C-425.947 43.5346 -659.23 124.263 -759.469 292.4" stroke="#E8EFFF" stroke-width="3.6509" stroke-miterlimit="10" stroke-linecap="round" stroke-linejoin="round" stroke-dasharray="0.05 15.35"/>
<path d="M2199.38 -355.521C2164.88 -95.1886 1836.37 165.662 1596.71 100.993C1437.73 58.0918 1327.35 -58.4769 1169.58 -90.41C1067.43 -111.083 975.611 -113.768 880.17 -92.0235C722.299 -56.0606 536.719 52.8158 425.43 91.1582C263.421 146.974 27.1485 97.2789 -166.696 69.6097C-408.182 35.1353 -643.555 113.207 -750.722 283.804" stroke="#E8EFFF" stroke-width="3.87639" stroke-miterlimit="10" stroke-linecap="round" stroke-linejoin="round" stroke-dasharray="0.05 15.35"/>
<path d="M2207.14 -350.742C2170.61 -97.9787 1848.36 162.886 1606.29 93.7994C1448.4 48.737 1334.41 -63.4537 1174.52 -88.846C1070.75 -105.321 979.76 -104.52 884.131 -80.8687C729.194 -42.5529 549.027 62.2322 438.162 98.2108C276.362 150.724 41.9136 92.8666 -149.675 63.5478C-390.424 26.7097 -627.891 102.144 -741.981 275.197" stroke="#E8EFFF" stroke-width="4.10187" stroke-miterlimit="10" stroke-linecap="round" stroke-linejoin="round" stroke-dasharray="0.05 15.35"/>
<path d="M2214.88 -345.96C2176.34 -100.765 1860.32 160.177 1615.86 86.6101C1459.05 39.4244 1341.47 -68.4168 1179.45 -87.2779C1074.07 -99.5462 983.899 -95.306 888.092 -69.7098C736.08 -29.1036 561.334 71.6431 450.899 105.268C289.308 154.469 56.688 88.4393 -132.649 57.4949C-372.656 18.2739 -612.218 91.09 -733.236 266.604" stroke="#E8EFFF" stroke-width="4.32735" stroke-miterlimit="10" stroke-linecap="round" stroke-linejoin="round" stroke-dasharray="0.05 15.35"/>
<path d="M2222.64 -341.177C2182.07 -103.555 1872.26 157.525 1625.43 79.4209C1469.7 30.1453 1348.53 -73.3607 1184.39 -85.7097C1077.4 -93.7613 988.039 -86.1261 892.058 -58.5508C742.953 -15.7122 573.642 81.0539 463.641 112.329C302.255 158.213 71.4734 83.9977 -115.613 51.4469C-354.873 9.81433 -596.54 80.0407 -724.481 258.011" stroke="#E8EFFF" stroke-width="4.55284" stroke-miterlimit="10" stroke-linecap="round" stroke-linejoin="round" stroke-dasharray="0.05 15.35"/>
<path d="M2230.38 -336.4C2187.8 -106.347 1884.17 154.924 1635 72.2258C1480.32 20.8936 1355.58 -78.2961 1189.32 -84.1475C1080.71 -87.968 992.153 -76.9906 896.016 -47.3978C749.8 -2.3845 585.942 90.4493 476.376 119.38C315.189 161.942 86.2508 79.531 -98.5895 45.3882C-337.102 1.32964 -580.87 68.9809 -715.738 249.412" stroke="#E8EFFF" stroke-width="4.77832" stroke-miterlimit="10" stroke-linecap="round" stroke-linejoin="round" stroke-dasharray="0.05 15.35"/>
<path d="M2238.14 -331.616C2193.53 -109.132 1896.06 152.386 1644.57 65.0374C1490.94 11.6772 1362.65 -83.2103 1194.26 -82.5786C1084.04 -82.163 996.261 -67.8918 899.982 -36.238C756.636 10.8921 598.25 99.8466 489.118 126.438C328.131 165.664 101.037 75.0519 -81.5578 39.3314C-319.318 -7.17703 -565.196 57.918 -706.987 240.809" stroke="#E8EFFF" stroke-width="5.0038" stroke-miterlimit="10" stroke-linecap="round" stroke-linejoin="round" stroke-dasharray="0.05 15.35"/>
<path d="M2245.89 -326.839C2199.26 -111.924 1907.92 149.905 1654.14 57.8472C1501.53 2.48752 1369.72 -88.1164 1199.2 -81.0114C1087.36 -76.3503 1000.34 -58.8335 903.937 -25.0801C763.434 24.1184 610.543 109.237 501.849 133.499C341.062 169.383 115.821 70.5615 -64.5374 33.2823C-301.535 -15.7046 -549.529 46.8678 -698.248 232.22" stroke="#E8EFFF" stroke-width="5.22928" stroke-miterlimit="10" stroke-linecap="round" stroke-linejoin="round" stroke-dasharray="0.05 15.35"/>
<path d="M2253.63 -322.056C2204.98 -114.71 1919.74 147.481 1663.71 50.658C1512.11 -6.6726 1376.8 -93.012 1204.13 -79.4433C1090.7 -70.5316 1004.41 -49.8129 907.902 -13.9163C770.213 37.2974 622.845 118.629 514.59 140.56C353.999 173.094 130.616 66.053 -47.5075 27.2343C-283.743 -24.2503 -533.857 35.8186 -689.499 223.627" stroke="#E8EFFF" stroke-width="5.45477" stroke-miterlimit="10" stroke-linecap="round" stroke-linejoin="round" stroke-dasharray="0.05 15.35"/>
<path d="M2261.39 -317.278C2210.71 -117.506 1931.54 145.109 1673.28 43.4639C1522.67 -15.814 1383.89 -97.898 1209.07 -77.88C1094.04 -64.7082 1008.46 -40.8407 911.862 -2.76233C776.959 50.4181 635.142 128.001 527.326 147.612C366.93 176.785 145.415 61.5156 -30.4826 21.1765C-265.945 -32.8297 -518.185 24.7596 -680.755 215.028" stroke="#E8EFFF" stroke-width="5.68025" stroke-miterlimit="10" stroke-linecap="round" stroke-linejoin="round" stroke-dasharray="0.05 15.35"/>
<path d="M2269.13 -312.496C2216.44 -120.292 1943.29 142.799 1682.85 36.2743C1533.22 -24.927 1390.99 -102.774 1214.01 -76.3169C1097.39 -58.8799 1012.47 -31.9075 915.827 8.39162C783.677 63.4951 647.445 137.368 540.067 154.664C379.871 180.467 160.22 56.9686 -13.4523 15.1138C-248.132 -41.4377 -502.513 13.6957 -672.005 206.42" stroke="#E8EFFF" stroke-width="5.90573" stroke-miterlimit="10" stroke-linecap="round" stroke-linejoin="round" stroke-dasharray="0.05 15.35"/>
<path d="M2276.88 -307.718C2222.17 -123.083 1955.01 140.532 1692.43 29.0804C1543.74 -34.0256 1398.09 -107.646 1218.95 -74.7535C1100.74 -53.0466 1016.46 -23.0176 919.796 19.5458C790.366 76.5383 659.756 146.731 552.812 161.721C392.812 184.145 175.038 52.4028 3.58177 9.06104C-230.31 -50.0645 -486.832 2.64174 -663.252 197.827" stroke="#E8EFFF" stroke-width="6.13122" stroke-miterlimit="10" stroke-linecap="round" stroke-linejoin="round" stroke-dasharray="0.05 15.35"/>
<path d="M2284.63 -302.936C2227.89 -125.87 1966.69 138.326 1701.99 21.8949C1554.25 -43.0967 1405.21 -112.503 1223.88 -73.1816C1104.09 -47.2047 1020.42 -14.1629 923.751 30.7085C797 89.5461 672.05 156.098 565.539 168.782C405.735 187.816 189.849 47.8264 20.5981 3.01183C-212.491 -58.7116 -471.168 -8.41341 -654.517 189.233" stroke="#E8EFFF" stroke-width="6.3519" stroke-miterlimit="10" stroke-linecap="round" stroke-linejoin="round" stroke-dasharray="0.05 15.35"/>
<path d="M2292.39 -298.158C2233.62 -128.661 1978.33 136.163 1711.57 14.7007C1564.74 -52.1577 1412.33 -117.37 1228.82 -71.6185C1107.46 -41.3618 1024.34 -5.35581 927.717 41.8625C803.606 102.516 684.353 165.446 578.281 175.833C418.678 191.464 204.679 43.227 37.6292 -3.05078C-194.647 -67.3958 -455.495 -19.4773 -645.766 180.63" stroke="#E8EFFF" stroke-width="6.57738" stroke-miterlimit="10" stroke-linecap="round" stroke-linejoin="round" stroke-dasharray="0.05 15.35"/>
<path d="M2300.13 -293.375C2239.35 -131.452 1989.93 134.058 1721.13 7.51135C1575.19 -61.1951 1419.46 -122.221 1233.75 -70.0505C1110.82 -35.514 1028.22 3.41231 931.671 53.0212C810.156 115.461 696.65 174.79 591.011 182.89C431.609 195.113 219.507 38.6182 54.6477 -9.10381C-176.806 -76.0992 -439.83 -30.5315 -637.029 172.031" stroke="#E8EFFF" stroke-width="6.80287" stroke-miterlimit="10" stroke-linecap="round" stroke-linejoin="round" stroke-dasharray="0.05 15.35"/>
<path d="M2307.89 -288.597C2245.08 -134.242 2001.5 131.995 1730.71 0.31813C1585.64 -70.2221 1426.61 -127.077 1238.69 -68.4863C1114.2 -29.67 1032.07 12.1424 935.642 64.1762C816.682 128.373 708.964 184.129 603.758 189.948C444.562 198.752 234.357 33.9912 71.684 -15.1559C-158.927 -84.83 -424.151 -41.5847 -628.273 163.439" stroke="#E8EFFF" stroke-width="7.02835" stroke-miterlimit="10" stroke-linecap="round" stroke-linejoin="round" stroke-dasharray="0.05 15.35"/>
<path d="M2315.63 -283.815C2250.81 -137.028 2013.01 129.983 1740.28 -6.87185C1596.07 -79.2366 1433.76 -131.929 1243.62 -66.919C1117.58 -23.8226 1035.87 20.8319 939.6 75.3344C823.147 141.268 721.27 193.463 616.493 197.004C457.508 202.376 249.21 29.3485 88.7079 -21.2094C-141.051 -93.5863 -408.481 -52.6395 -619.53 154.845" stroke="#E8EFFF" stroke-width="7.25383" stroke-miterlimit="10" stroke-linecap="round" stroke-linejoin="round" stroke-dasharray="0.05 15.35"/>
<path d="M2323.38 -279.032C2256.54 -139.814 2024.48 128.015 1749.85 -14.0564C1606.48 -88.2316 1441.05 -136.408 1248.56 -65.3462C1121.05 -17.7236 1039.62 29.4926 943.561 86.5028C829.567 154.158 733.584 202.802 629.23 204.07C470.456 206.006 264.075 24.7018 105.739 -27.2576C-123.147 -102.366 -392.807 -63.6888 -610.78 146.252" stroke="#E8EFFF" stroke-width="7.47932" stroke-miterlimit="10" stroke-linecap="round" stroke-linejoin="round" stroke-dasharray="0.05 15.35"/>
<path d="M2331.13 -274.255C2262.26 -142.606 2035.9 126.088 1759.42 -21.2514C1616.85 -97.2279 1448.17 -141.386 1253.49 -63.7838C1124.41 -11.9583 1043.32 38.1036 947.519 97.6559C835.937 167.013 745.893 211.933 641.965 211.126C483.411 209.327 278.947 20.0304 122.763 -33.3114C-105.237 -111.179 -377.137 -74.7438 -602.037 137.657" stroke="#E8EFFF" stroke-width="7.7048" stroke-miterlimit="10" stroke-linecap="round" stroke-linejoin="round" stroke-dasharray="0.05 15.35"/>
<path d="M2338.88 -269.471C2267.99 -145.396 2047.28 124.204 1768.99 -28.4401C1627.22 -106.204 1455.31 -146.357 1258.44 -62.2199C1127.78 -6.19137 1046.98 46.6818 951.485 108.811C842.261 179.864 758.22 221.336 654.706 218.179C496.381 213.058 293.936 15.0647 139.793 -39.3685C-87.1546 -120.435 -361.464 -85.807 -593.287 129.055" stroke="#E8EFFF" stroke-width="7.93028" stroke-miterlimit="10" stroke-linecap="round" stroke-linejoin="round" stroke-dasharray="0.05 15.35"/>
<path d="M2346.63 -264.694C2273.72 -148.188 2058.61 122.363 1778.56 -35.6348C1637.56 -115.181 1462.43 -151.334 1263.37 -60.6573C1131.14 -0.425804 1050.59 55.2294 955.445 119.964C848.532 192.709 770.536 230.736 667.443 225.23C509.342 216.788 308.739 10.6372 156.819 -45.4269C-69.3485 -128.895 -345.791 -96.8665 -584.543 120.456" stroke="#E8EFFF" stroke-width="8.15577" stroke-miterlimit="10" stroke-linecap="round" stroke-linejoin="round" stroke-dasharray="0.05 15.35"/>
</g>
</g>
<defs>
<clipPath id="clip0_25_952">
<rect width="2279.78" height="829.01" fill="white" transform="translate(2110.17 434.546) rotate(-179.121)"/>
</clipPath>
</defs>
</svg>
