<svg width="19" height="14" viewBox="0 0 19 14" fill="none" xmlns="http://www.w3.org/2000/svg">
<path d="M17.6661 6.46634C18.1448 6.4664 18.5327 6.85446 18.5327 7.33311C18.5326 7.81176 18.1446 8.19973 17.6659 8.19967L17.6661 6.46634ZM1.05312 7.94387C0.714703 7.60537 0.714768 7.05663 1.05326 6.71821L6.56935 1.20343C6.90784 0.865019 7.45659 0.865084 7.795 1.20358C8.13341 1.54207 8.13335 2.09082 7.79486 2.42923L2.89167 7.33126L7.79369 12.2344C8.13211 12.5729 8.13204 13.1217 7.79355 13.4601C7.45505 13.7985 6.90631 13.7984 6.5679 13.46L1.05312 7.94387ZM17.6659 8.19967L1.66591 8.19778L1.66612 6.46445L17.6661 6.46634L17.6659 8.19967Z" fill="white"/>
</svg>
