<svg width="54" height="54" viewBox="0 0 54 54" fill="none" xmlns="http://www.w3.org/2000/svg">
<circle cx="26.6667" cy="26.6672" r="26.6667" fill="white"/>
<path d="M18.6666 25.8003C18.188 25.8004 17.8 26.1884 17.8001 26.6671C17.8001 27.1457 18.1882 27.5337 18.6669 27.5337L18.6666 25.8003ZM35.2796 27.2778C35.6181 26.9394 35.618 26.3906 35.2795 26.0522L29.7634 20.5374C29.4249 20.199 28.8762 20.1991 28.5378 20.5376C28.1993 20.8761 28.1994 21.4248 28.5379 21.7632L33.4411 26.6652L28.5391 31.5684C28.2007 31.9069 28.2007 32.4557 28.5392 32.7941C28.8777 33.1325 29.4265 33.1324 29.7649 32.7939L35.2796 27.2778ZM18.6669 27.5337L34.6669 27.5318L34.6666 25.7984L18.6666 25.8003L18.6669 27.5337Z" fill="#AAAAAD"/>
</svg>