<svg width="54" height="54" viewBox="0 0 54 54" fill="none" xmlns="http://www.w3.org/2000/svg">
<circle cx="27.0007" cy="26.6672" r="26.6667" fill="white"/>
<path d="M19.0005 25.8003C18.5219 25.8004 18.1339 26.1884 18.1339 26.6671C18.134 27.1457 18.5221 27.5337 19.0007 27.5337L19.0005 25.8003ZM35.6135 27.2778C35.9519 26.9394 35.9519 26.3906 35.6134 26.0522L30.0973 20.5374C29.7588 20.199 29.21 20.1991 28.8716 20.5376C28.5332 20.8761 28.5333 21.4248 28.8718 21.7632L33.775 26.6652L28.8729 31.5684C28.5345 31.9069 28.5346 32.4557 28.8731 32.7941C29.2116 33.1325 29.7603 33.1324 30.0987 32.7939L35.6135 27.2778ZM19.0007 27.5337L35.0007 27.5318L35.0005 25.7984L19.0005 25.8003L19.0007 27.5337Z" fill="#3957ED"/>
</svg>
