<svg width="263" height="43" viewBox="0 0 263 43" fill="none" xmlns="http://www.w3.org/2000/svg">
<g clip-path="url(#clip0_25_1255)">
<path d="M24.4735 6.94837C27.5853 8.49425 29.9983 10.6918 31.6881 13.5377C33.3902 16.3836 34.229 19.701 34.229 23.4681C34.229 27.2351 33.3779 30.529 31.6881 33.3412C29.986 36.1551 27.5853 38.3392 24.4735 39.875C21.3618 41.4208 17.7493 42.1837 13.6464 42.1837H0V4.63965H13.6464C17.7493 4.63965 21.3618 5.40249 24.4735 6.94837ZM22.8783 32.5581C25.1162 30.406 26.2351 27.3799 26.2351 23.4681C26.2351 19.5562 25.1162 16.4965 22.8783 14.3006C20.6403 12.0929 17.4708 10.9949 13.368 10.9949H7.83272V35.7863H13.368C17.4708 35.7863 20.6403 34.7102 22.8783 32.5581Z" fill="black"/>
<path d="M39.962 19.1653C41.2087 16.8347 42.9108 15.0413 45.0542 13.785C47.1975 12.5288 49.6001 11.9023 52.2442 11.9023C54.5522 11.9023 56.58 12.3503 58.3153 13.2478C60.0524 14.1437 61.4393 15.277 62.4882 16.6326V12.3856H70.3787V42.1868H62.4882V37.827C61.4866 39.2281 60.0875 40.3816 58.3153 41.301C56.5432 42.2205 54.5049 42.6684 52.1847 42.6684C49.5738 42.6684 47.1958 42.0184 45.0524 40.7302C42.9073 39.4419 41.207 37.6148 39.9602 35.2724C38.7134 32.9182 38.083 30.229 38.083 27.181C38.083 24.133 38.7117 21.4993 39.9602 19.167L39.962 19.1653ZM61.3605 22.572C60.6146 21.2601 59.6129 20.2632 58.3416 19.5577C57.0721 18.8622 55.7079 18.5035 54.2633 18.5035C52.8186 18.5035 51.4668 18.8403 50.2305 19.524C48.9959 20.2077 48.0048 21.2046 47.2361 22.5046C46.4673 23.8164 46.0943 25.3623 46.0943 27.1557C46.0943 28.9491 46.4796 30.5186 47.2361 31.8624C48.0048 33.2079 49.0082 34.2385 50.255 34.9558C51.5018 35.6732 52.8431 36.0319 54.2528 36.0319C55.6624 36.0319 57.0738 35.685 58.3311 34.9777C59.6007 34.2823 60.604 33.2736 61.35 31.9634C62.096 30.6533 62.469 29.0839 62.469 27.2568C62.4917 25.4515 62.1083 23.8838 61.3623 22.572H61.3605Z" fill="black"/>
<path d="M89.8096 13.2918C91.4294 12.3959 93.2821 11.9463 95.3799 11.9463V19.8593H93.3048C90.8463 19.8593 88.9936 20.42 87.7345 21.5297C86.4877 22.6395 85.8573 24.5777 85.8573 27.3344V42.1836H78.0264V12.3841H85.8573V17.0133C86.8712 15.4338 88.1881 14.1893 89.8078 13.2918H89.8096Z" fill="black"/>
<path d="M143.592 12.3838L134.525 42.1849H126.076L120.423 21.361L114.771 42.1849H106.264L97.1494 12.3838H105.098L110.575 35.0904L116.508 12.3838H124.782L130.597 35.0348L136.075 12.3838H143.592Z" fill="black"/>
<path d="M189.523 15.3092C191.796 17.5506 192.938 20.6777 192.938 24.7007V42.1836H185.107V25.7195C185.107 23.3552 184.489 21.5281 183.265 20.2617C182.03 18.9836 180.351 18.3572 178.23 18.3572C176.11 18.3572 174.36 18.9954 173.113 20.2617C171.867 21.5399 171.236 23.3552 171.236 25.7195V42.1836H163.405V12.3841H171.236V16.0939C172.285 14.8057 173.614 13.7852 175.234 13.056C176.854 12.3168 178.636 11.9581 180.571 11.9581C184.266 11.9463 187.25 13.0678 189.521 15.3092H189.523Z" fill="black"/>
<path d="M237.633 35.0342H222.087L219.511 42.1843H211.282L225.326 4.58301H234.441L248.485 42.1843H240.211L237.635 35.0342H237.633ZM235.511 29.0039L229.858 13.2908L224.205 29.0039H235.511Z" fill="black"/>
<path d="M261.311 1.27806C260.402 0.437762 259.248 0.0117188 257.874 0.0117188C256.499 0.0117188 255.345 0.437762 254.436 1.27806C253.527 2.11836 253.062 3.17252 253.062 4.42708C253.062 5.30106 253.294 6.06389 253.737 6.74758C253.935 7.03891 254.158 7.31845 254.426 7.5761C255.334 8.4164 256.488 8.84244 257.863 8.84244C259.238 8.84244 260.392 8.4164 261.3 7.5761C261.393 7.48685 261.476 7.38581 261.556 7.28477C262.279 6.48825 262.663 5.54692 262.663 4.42708C262.686 3.16074 262.232 2.11836 261.311 1.27806Z" fill="#3A58ED"/>
<path d="M155.677 12.3838H147.846V42.1849H155.677V12.3838Z" fill="black"/>
<path d="M253.737 11.1628V42.1849H261.568V11.375C260.484 11.9459 259.26 12.249 257.873 12.249C256.301 12.249 254.914 11.8903 253.735 11.1611L253.737 11.1628Z" fill="black"/>
<path d="M148.383 7.56438C147.475 6.72408 147.009 5.66992 147.009 4.41536C147.009 3.1608 147.464 2.10664 148.383 1.26634C149.292 0.426044 150.446 0 151.821 0C153.195 0 154.349 0.426044 155.258 1.26634C156.167 2.10664 156.633 3.1608 156.633 4.41536C156.633 5.66992 156.178 6.72408 155.258 7.56438C154.349 8.40468 153.195 8.83072 151.821 8.83072C150.446 8.83072 149.292 8.40468 148.383 7.56438Z" fill="black"/>
</g>
<defs>
<clipPath id="clip0_25_1255">
<rect width="262.667" height="42.6667" fill="white"/>
</clipPath>
</defs>
</svg>
