<svg width="348" height="300" viewBox="0 0 348 300" fill="none" xmlns="http://www.w3.org/2000/svg">
<path d="M309.715 70.1C303.235 70.8012 299.217 73.546 296.596 79.0555C294.17 84.1844 293.044 91.4771 292.78 103.818C292.631 110.71 292.728 137.617 292.912 140.823C293.405 149.458 294.477 154.827 296.684 159.655C298.645 163.963 301.248 166.667 304.527 167.809C306.822 168.611 307.324 168.631 319.651 168.631C331.899 168.631 332.568 168.591 335.61 167.809C337.791 167.248 339.813 166.046 341.158 164.524C343.154 162.24 344.711 158.754 345.651 154.406C346.706 149.578 347.181 142.185 346.997 133.41L346.935 130.264H340.402H333.878L333.816 132.488C333.702 136.515 333.324 138.879 332.489 140.662C330.941 143.988 328.822 144.689 320.135 144.689C315.809 144.689 313.347 144.489 312.001 144.068C308.493 142.966 306.77 139.721 306.137 133.069C305.943 131.026 305.934 130.665 305.934 119.646C305.934 107.785 305.97 106.323 306.339 103.217C306.708 100.132 307.455 97.9082 308.59 96.5459C310.348 94.4422 312.555 94.0215 321.498 94.0014C328.048 94.0014 329.314 94.2018 330.809 95.484C332.497 96.9465 333.306 99.5911 333.465 104.179L333.526 105.822L339.998 105.782L346.469 105.722L346.46 100.613C346.46 93.9614 346.249 90.3351 345.643 86.1879C344.438 78.0338 341.703 73.0852 337.439 71.3622C336.182 70.8613 333.992 70.4205 331.565 70.1601C329.939 69.9798 311.21 69.9397 309.715 70.1Z" fill="black"/>
<path d="M24.6709 72.6845C24.4423 73.546 18.8853 95.2236 12.3171 120.848L0.367676 167.429L12.8798 167.489C19.7558 167.509 31.0457 167.509 37.9744 167.489L50.5569 167.429L37.8865 119.546C30.9138 93.2001 25.1809 71.5425 25.1369 71.3822C25.093 71.1819 24.9523 71.5625 24.6709 72.6845Z" fill="black"/>
<path d="M31.9161 76.5105L30.5093 81.8798L30.7467 82.8014C30.8786 83.3023 35.9872 102.576 42.107 125.616L53.221 167.528H55.8413C57.2833 167.528 58.4615 167.468 58.4615 167.408C58.4615 167.308 33.4373 71.4217 33.3493 71.2013C33.3406 71.1612 32.6987 73.5453 31.9161 76.5105Z" fill="black"/>
<path d="M39.8663 76.4904C38.5034 81.6995 38.477 81.8197 38.6001 82.3807C38.6705 82.7012 43.7703 101.975 49.934 125.235L61.1448 167.508L63.8002 167.528H66.4557L65.8226 165.064C62.5077 152.362 41.3611 71.4216 41.3171 71.3014C41.2907 71.2213 40.6313 73.5453 39.8663 76.4904Z" fill="black"/>
<path d="M47.8667 76.2108C47.1457 78.9756 46.5126 81.3798 46.4686 81.5801C46.4159 81.8606 48.8339 91.1567 57.6706 124.495C63.8783 147.875 68.9957 167.149 69.0573 167.289C69.1276 167.469 69.7431 167.529 71.7655 167.489L74.3681 167.429L61.8384 119.446C54.9449 93.06 49.2735 71.4025 49.2471 71.3223C49.212 71.2622 48.5965 73.446 47.8667 76.2108Z" fill="black"/>
<path d="M88.2695 119.345V167.528H111.614H134.959V155.908V144.288H118.077H101.195V136.875V129.462H116.846H132.497V119.345V109.227H116.846H101.195V101.915V94.6019H117.813H134.432V82.8815V71.1612H111.351H88.2695V119.345Z" fill="black"/>
<path d="M142.522 119.345V167.528H148.985H155.447L155.465 132.608L155.491 97.6672L168.109 132.588L180.727 167.508H190.205L199.675 167.528V119.345V71.1612H193.256H186.838L186.82 106.442L186.794 141.744L174.22 106.442L161.646 71.1612H152.089H142.522V119.345Z" fill="black"/>
<path d="M208.553 119.345V167.528H215.016H221.479V119.345V71.1612H215.016H208.553V119.345Z" fill="black"/>
<path d="M238.054 119.184C231.723 145.61 226.535 167.288 226.518 167.388C226.5 167.468 229.648 167.508 233.526 167.488L240.577 167.428L242.617 159.514L244.657 151.601H257.565H270.464L272.495 159.554L274.517 167.528H281.587C285.473 167.528 288.656 167.468 288.656 167.408C288.656 167.328 283.565 145.65 277.34 119.225L266.032 71.1612H257.794H249.555L238.054 119.184ZM261.742 111.451L265.76 128.16L257.714 128.22C253.292 128.24 249.66 128.22 249.643 128.18C249.625 128.14 251.401 120.527 253.582 111.251C255.938 101.273 257.591 94.4616 257.635 94.5618C257.679 94.662 259.526 102.275 261.742 111.451Z" fill="black"/>
<path d="M220.425 199.185V206.598L219.88 205.916C218.069 203.673 215.73 203.753 214.2 206.117C212.547 208.641 211.694 212.929 211.835 217.897C211.94 221.704 212.45 224.489 213.435 226.733C214.367 228.876 215.405 229.838 216.759 229.838C218.333 229.838 219.572 228.415 220.355 225.731L220.733 224.408L220.786 225.871C220.865 228.215 221.199 229.237 222.034 229.618C222.58 229.878 223.556 229.658 223.538 229.277C223.529 229.157 223.52 228.455 223.52 227.754C223.503 226.612 223.485 226.472 223.345 226.572C223.072 226.733 222.597 226.332 222.43 225.811C222.263 225.31 222.263 224.669 222.272 208.541L222.281 191.772H221.349H220.425V199.185ZM218.799 208.421C219.089 208.641 219.59 209.182 219.924 209.623L220.513 210.424V214.271C220.513 216.395 220.469 218.699 220.417 219.42C220.082 224.188 218.201 227.093 216.205 225.951C215.123 225.33 214.323 223.567 213.91 220.922C213.673 219.4 213.585 216.314 213.743 214.571C214.033 211.166 215.132 208.561 216.53 208C217.119 207.76 218.166 207.96 218.799 208.421Z" fill="black"/>
<path d="M289.034 207.738C289.061 221.722 289.078 223.866 289.201 224.768C289.43 226.491 289.702 227.593 290.081 228.334C290.643 229.436 291.162 229.736 292.411 229.736C293.009 229.716 293.527 229.636 293.562 229.536C293.606 229.416 293.624 228.654 293.598 227.833L293.562 226.33H292.762C291.751 226.33 291.443 225.99 291.118 224.527L290.898 223.526L290.872 207.638L290.846 191.77H289.922H288.999L289.034 207.738Z" fill="black"/>
<path d="M172.575 195.678C172.144 197.381 171.801 198.924 171.801 199.084C171.801 199.325 171.933 199.385 172.443 199.385C172.786 199.385 173.12 199.305 173.172 199.224C173.392 198.884 174.966 194.096 174.905 193.975C174.825 193.835 173.454 192.573 173.383 192.573C173.357 192.573 172.997 193.975 172.575 195.678Z" fill="black"/>
<path d="M7.84385 193.254C5.28515 194.376 3.35074 197.681 2.28681 202.79C1.73287 205.415 1.55701 207.198 1.51305 210.704C1.47788 213.168 1.50426 214.05 1.64494 215.612C2.45388 224.508 5.75996 230.218 9.83982 229.777C12.8557 229.436 15.2034 225.89 16.2322 220.12C16.663 217.716 16.6806 217.816 15.6255 217.836H14.7198L14.4209 219.279C13.8493 222.024 12.4864 224.508 11.0972 225.309C9.40018 226.311 7.56248 225.71 6.17322 223.726C4.43225 221.222 3.42108 216.694 3.42108 211.425C3.42108 204.513 5.08292 199.124 7.72955 197.461C8.50331 196.98 10.2707 196.98 11.062 197.461C12.4073 198.302 13.6207 200.366 14.3066 202.991L14.6495 204.293L15.5463 204.353C16.5751 204.413 16.5575 204.473 16.2058 202.53C15.4056 198.202 13.6295 194.836 11.4665 193.554C10.5608 193.013 8.74072 192.873 7.84385 193.254Z" fill="black"/>
<path d="M297.363 196.077C296.562 197.78 295.903 199.302 295.885 199.483C295.859 199.743 295.991 199.783 296.721 199.783H297.582L298.611 197.579L299.631 195.376L300.651 197.579L301.671 199.783H302.506C303.113 199.783 303.342 199.723 303.342 199.523C303.342 199.403 302.691 197.86 301.9 196.117L300.458 192.971H299.631H298.813L297.363 196.077Z" fill="black"/>
<path d="M79.478 206.035C79.478 220.26 79.4868 220.34 80.0935 223.145C80.7178 226.07 82.0279 228.374 83.6106 229.375C84.4196 229.876 86.6705 229.876 87.4795 229.375C89.5018 228.093 90.9174 224.888 91.4186 220.46C91.5505 219.258 91.5681 217.775 91.5681 206.295V193.473L90.6273 193.413L89.6777 193.353V205.955C89.6777 219.618 89.6689 219.899 89.1765 221.782C88.7017 223.645 87.8136 225.068 86.776 225.629C86.1605 225.969 84.9383 225.989 84.3141 225.649C82.9072 224.868 81.8169 222.463 81.5092 219.398C81.4476 218.857 81.4124 213.688 81.4124 205.935V193.373H80.4452H79.478V206.035Z" fill="black"/>
<path d="M242.935 211.405V229.437H247.683H252.431V227.433V225.43H248.65H244.869V219.119V212.808L248.369 212.768L251.859 212.708V210.804V208.901L248.369 208.841L244.869 208.801V202.991V197.181H248.518H252.167V195.277V193.374H247.551H242.935V211.405Z" fill="black"/>
<path d="M107.815 194.175C107.525 194.436 107.261 195.538 107.261 196.499C107.261 198.222 107.938 199.424 108.659 198.984C109.908 198.222 109.706 193.955 108.422 193.995C108.193 193.995 107.921 194.075 107.815 194.175Z" fill="black"/>
<path d="M155.427 194.296C154.732 195.137 154.759 197.882 155.462 198.704C156.095 199.445 156.746 198.964 157.062 197.502C157.273 196.5 157.194 195.518 156.807 194.637C156.561 194.076 156.456 193.975 156.095 193.975C155.858 193.995 155.559 194.116 155.427 194.296Z" fill="black"/>
<path d="M189.834 194.517C189.517 195.158 189.386 196.14 189.482 197.141C189.667 199.085 190.81 199.746 191.417 198.263C191.593 197.823 191.628 197.542 191.628 196.46C191.628 195.338 191.601 195.118 191.39 194.637C191.197 194.216 191.047 194.096 190.634 194.016C190.159 193.936 190.089 193.976 189.834 194.517Z" fill="black"/>
<path d="M331.944 194.677C331.645 195.358 331.636 195.438 331.672 196.58C331.698 197.482 331.759 197.902 331.918 198.283C332.366 199.385 333.201 199.325 333.624 198.163C333.808 197.662 333.852 197.341 333.852 196.44C333.852 195.458 333.817 195.258 333.553 194.657C333.281 194.036 333.201 193.976 332.753 193.976C332.296 193.976 332.225 194.036 331.944 194.677Z" fill="black"/>
<path d="M44.7101 197.721C44.6837 198.142 44.6397 199.865 44.6046 201.528L44.5518 204.593H43.3296H42.1074V205.996C42.1074 206.977 42.1426 207.398 42.2217 207.418C42.2745 207.438 42.7845 207.498 43.3384 207.578L44.3496 207.698L44.4023 215.111C44.4639 223.085 44.4903 223.726 44.9739 225.97C45.264 227.333 46.0114 228.895 46.6445 229.416C47.5677 230.218 48.8515 230.157 50.232 229.296L50.7419 228.975L50.6892 227.954C50.654 227.393 50.61 226.651 50.5837 226.311L50.5309 225.69L49.9506 226.07C49.0977 226.631 48.0689 226.611 47.5326 226.03C47.0402 225.509 46.6621 224.508 46.4423 223.245C46.3104 222.444 46.284 221.362 46.2576 215.051L46.2312 207.799H48.2096H50.1968V206.196V204.593H48.2184H46.24V200.786V196.98H45.5014H44.7628L44.7101 197.721Z" fill="black"/>
<path d="M161.214 197.32C161.196 197.521 161.144 199.244 161.117 201.127L161.056 204.593H159.834H158.611V205.995C158.611 206.977 158.646 207.398 158.726 207.418C158.778 207.438 159.288 207.498 159.842 207.578L160.853 207.698L160.906 215.011C160.959 222.865 160.994 223.626 161.434 225.75C162.234 229.636 164.204 230.959 166.736 229.296L167.246 228.975L167.193 227.954C167.158 227.393 167.114 226.651 167.088 226.311L167.035 225.69L166.454 226.07C166.112 226.291 165.566 226.471 165.153 226.471C164.036 226.491 163.421 225.65 162.973 223.426C162.797 222.564 162.788 222.144 162.762 215.151L162.735 207.799H164.714H166.701V206.196V204.593H164.722H162.744V200.786V196.98H162.005C161.372 196.98 161.258 197.04 161.214 197.32Z" fill="black"/>
<path d="M56.2804 204.113C55.4627 204.613 54.8121 205.555 54.4955 206.717C54.2845 207.498 54.1966 207.458 54.1262 206.597C54.0383 205.675 53.8097 205.014 53.414 204.533C53.1238 204.193 52.904 204.113 52.2534 204.133C51.8049 204.133 51.4005 204.193 51.3477 204.273C51.2949 204.353 51.251 204.974 51.251 205.715C51.251 206.998 51.251 206.998 51.506 206.998C51.6379 206.998 51.8841 207.098 52.0423 207.218C52.5699 207.639 52.5699 207.659 52.5699 219.119V229.437H53.4492H54.3197L54.346 220.862L54.3724 212.307L54.5922 211.305C55.3836 207.679 57.2652 206.457 59.0766 208.42C59.3843 208.741 59.6393 208.981 59.6481 208.961C59.736 208.66 60.035 205.735 59.9998 205.575C59.9031 205.255 59.1029 204.413 58.5754 204.093C57.9511 203.712 56.8959 203.732 56.2804 204.113Z" fill="black"/>
<path d="M139.11 204.093C138.309 204.593 137.782 205.415 137.333 206.817L137.096 207.559L136.99 206.577C136.744 204.433 135.759 203.612 134.282 204.313C134.098 204.393 134.08 204.513 134.08 205.695V206.998H134.344C134.713 206.998 135.188 207.478 135.302 207.959C135.373 208.24 135.399 211.746 135.399 218.898V229.437H136.322H137.245V221.062C137.245 211.525 137.245 211.525 137.931 209.782C138.907 207.298 140.385 206.797 141.897 208.4C142.205 208.741 142.477 208.981 142.495 208.941C142.512 208.901 142.618 208.12 142.732 207.218L142.943 205.595L142.574 205.114C141.932 204.253 141.378 203.932 140.455 203.872C139.866 203.812 139.426 203.892 139.11 204.093Z" fill="black"/>
<path d="M184.469 204.113C183.748 204.553 183.15 205.395 182.799 206.437C182.623 206.958 182.456 207.378 182.429 207.378C182.394 207.398 182.35 207.098 182.324 206.717C182.254 205.735 182.025 205.034 181.612 204.533C181.322 204.193 181.102 204.113 180.451 204.133C180.003 204.133 179.598 204.193 179.545 204.273C179.493 204.353 179.449 204.974 179.449 205.675V206.938L179.844 207.078C180.407 207.238 180.574 207.498 180.68 208.36C180.732 208.821 180.768 212.868 180.768 219.259V229.437H181.647H182.517L182.544 220.882L182.57 212.307L182.816 211.165C183.247 209.181 184.144 207.779 185.164 207.498C185.78 207.338 186.791 207.799 187.345 208.5C187.564 208.781 187.775 208.941 187.811 208.861C187.907 208.6 188.242 205.755 188.189 205.555C188.101 205.235 187.283 204.393 186.773 204.093C186.149 203.712 185.094 203.732 184.469 204.113Z" fill="black"/>
<path d="M22.3684 204.271C20.4252 205.132 18.9304 207.957 18.3237 211.924C17.1279 219.738 18.8073 227.511 22.0958 229.435C23.0279 229.976 24.083 230.136 24.9887 229.855C25.8064 229.615 27.0462 228.854 27.6529 228.233L28.0222 227.872L27.8903 226.409C27.8199 225.588 27.7496 224.907 27.7408 224.887C27.7232 224.847 27.4331 225.047 27.0901 225.307C25.4107 226.61 23.7137 226.89 22.5443 226.069C20.9264 224.947 19.8888 222.222 19.7921 218.856L19.7482 217.414H24.0566H28.3739L28.4266 216.793C28.5234 215.651 28.4794 212.726 28.3475 211.423C27.9782 207.877 26.9055 205.473 25.2437 204.491C24.4699 204.051 23.1246 203.93 22.3684 204.271ZM25.2524 208.078C26.1757 209.079 26.7296 210.862 26.8351 213.146L26.8879 214.208H23.362H19.8361L19.8888 213.467C20.0207 211.604 20.7857 209.28 21.5419 208.378C22.2717 207.537 22.5794 207.396 23.6873 207.456C24.6282 207.517 24.7952 207.577 25.2524 208.078Z" fill="black"/>
<path d="M35.5548 204.193C34.4469 204.533 33.4269 205.755 32.8993 207.338L32.6619 208.059L32.5388 206.978C32.3278 205.014 31.8618 204.313 30.8067 204.313C30.4198 204.313 29.9977 204.393 29.8658 204.453C29.6196 204.593 29.6196 204.613 29.6196 206.196V207.799H30.0065C30.4901 207.799 30.7451 208.26 30.8506 209.302C30.8946 209.742 30.9385 214.451 30.9385 219.76V229.437H31.809H32.6883L32.7147 221.162L32.7411 212.908L32.9961 211.666C33.2862 210.203 33.9017 208.781 34.526 208.14C34.8777 207.759 35.0975 207.699 35.9504 207.699C36.8385 207.699 37.0056 207.759 37.3397 208.16C37.92 208.861 38.386 209.923 38.6498 211.165L38.896 212.307L38.9224 220.882L38.9488 229.437H39.8632H40.7865V221.262C40.7865 212.247 40.7425 211.385 40.2501 209.101C39.9424 207.679 39.195 205.896 38.6234 205.235C37.8145 204.293 36.5659 203.872 35.5548 204.193Z" fill="black"/>
<path d="M64.8806 204.272C62.6033 205.374 60.9942 208.86 60.5282 213.728C60.2996 215.972 60.3787 219.599 60.6953 221.622C61.4426 226.451 63.3419 229.516 65.7687 229.796C67.5712 229.977 69.0748 228.734 70.253 226.05C71.018 224.327 71.3961 222.804 71.6599 220.46C71.8621 218.637 71.8797 215.712 71.695 213.749C71.2818 209.301 69.7518 205.735 67.7383 204.492C66.9997 204.052 65.584 203.931 64.8806 204.272ZM67.07 207.818C68.5033 208.56 69.6287 211.204 69.9365 214.55C70.2794 218.176 69.8573 221.682 68.8286 223.926C67.9317 225.89 66.7183 226.711 65.4785 226.25C62.955 225.309 61.6009 219.619 62.4274 213.508C62.6121 212.126 63.1397 210.323 63.5793 209.561C63.975 208.88 64.7224 208.039 65.118 207.818C65.5753 207.578 66.604 207.558 67.07 207.818Z" fill="black"/>
<path d="M99.525 204.173C98.4699 204.513 97.6433 205.415 97.0015 206.958C96.6585 207.759 96.5354 207.959 96.5354 207.679C96.5354 206.056 96.0694 204.734 95.3924 204.413C94.9527 204.193 93.8361 204.313 93.6338 204.593C93.5635 204.694 93.5547 205.194 93.5986 206.256L93.6602 207.799H94.0295C94.3109 207.799 94.4428 207.919 94.6098 208.32L94.8208 208.841L94.8472 219.139L94.8736 229.437H95.7441H96.6234V222.164C96.6234 214.511 96.6849 212.687 96.9839 211.385C97.2564 210.143 97.7928 208.941 98.3555 208.28C98.8304 207.739 98.9359 207.699 99.8767 207.699C100.809 207.699 100.923 207.739 101.336 208.24C101.917 208.921 102.453 210.323 102.708 211.786C102.893 212.868 102.901 213.188 102.937 221.182L102.972 229.437H103.842H104.713V221.162C104.713 213.549 104.695 212.748 104.537 211.325C104.22 208.46 103.534 206.356 102.55 205.235C101.688 204.273 100.536 203.852 99.525 204.173Z" fill="black"/>
<path d="M126.869 204.272C125.621 204.893 124.803 205.875 123.994 207.758C122.939 210.182 122.403 213.769 122.499 217.715C122.64 223.666 124.144 227.913 126.685 229.476C127.599 230.037 129.349 230.077 130.343 229.556C131.407 228.995 132.497 228.053 132.497 227.693C132.497 227.112 132.295 224.828 132.242 224.828C132.215 224.828 131.978 225.008 131.714 225.248C130.263 226.491 128.267 226.891 127.177 226.15C125.427 224.948 124.469 222.484 124.284 218.657L124.223 217.415H128.566H132.91L132.972 216.493C133.13 213.729 132.901 210.583 132.383 208.64C131.864 206.656 130.932 205.174 129.771 204.493C129.006 204.032 127.582 203.932 126.869 204.272ZM129.753 208.079C130.721 209.08 131.354 211.184 131.354 213.348V214.209H127.845H124.337L124.416 213.388C124.601 211.545 125.225 209.541 125.885 208.66C126.676 207.598 127.08 207.378 128.188 207.458C129.085 207.498 129.261 207.578 129.753 208.079Z" fill="black"/>
<path d="M147.287 204.192C144.614 205.034 143.216 208.6 143.787 213.088C144.139 215.832 145.361 217.355 147.885 218.136C149.881 218.758 150.567 219.258 151.006 220.46C151.217 221.042 151.244 221.222 151.208 222.364C151.164 224.007 150.874 224.868 150.048 225.81C149.485 226.471 149.379 226.511 148.412 226.591C147.533 226.671 147.278 226.611 146.768 226.271C145.889 225.649 145.159 224.107 145.159 222.825C145.159 222.444 145.106 222.424 144.271 222.424H143.374L143.427 223.325C143.611 226.271 144.64 228.514 146.302 229.556C147.181 230.117 149.116 230.077 150.021 229.476C151.499 228.514 152.448 226.892 152.809 224.688C152.967 223.726 152.993 223.225 152.967 221.823C152.923 219.879 152.765 218.918 152.299 217.856C151.683 216.454 150.822 215.853 147.973 214.831C147.366 214.61 146.733 214.33 146.557 214.21C144.983 213.188 144.974 209.381 146.548 207.959C146.979 207.578 147.216 207.518 148.192 207.498C149.327 207.498 149.344 207.498 149.951 208.199C150.602 208.941 150.962 209.842 150.962 210.724C150.962 211.204 150.98 211.204 151.841 211.204C152.853 211.204 152.844 211.224 152.58 209.201C152.413 207.899 151.754 206.296 151.059 205.495C150.101 204.393 148.456 203.832 147.287 204.192Z" fill="black"/>
<path d="M171.377 204.212C170.357 204.512 168.722 205.714 168.722 206.155C168.722 206.255 168.783 206.977 168.862 207.758L169.003 209.16L169.539 208.599C170.392 207.698 171.386 207.337 172.626 207.437C174.208 207.598 175.114 208.559 175.501 210.483C175.703 211.484 175.747 215.531 175.562 215.351C174.138 213.989 173.399 213.608 172.142 213.608C170.63 213.608 169.522 214.55 168.722 216.553C168.097 218.116 167.895 219.438 167.886 221.923C167.886 223.666 167.921 224.066 168.124 225.068C168.581 227.312 169.487 228.895 170.665 229.536C172.485 230.497 174.841 228.875 175.747 226.01L175.984 225.268L176.081 226.571C176.134 227.272 176.248 228.073 176.327 228.354C176.653 229.496 177.418 230.037 178.244 229.716L178.701 229.536V228.234V226.931L178.394 226.911C177.426 226.851 177.426 226.831 177.426 218.156C177.426 210.242 177.4 209.721 176.837 207.858C175.967 204.913 173.821 203.491 171.377 204.212ZM174.041 217.214C174.384 217.415 174.885 217.795 175.167 218.076L175.668 218.597V220.059C175.668 221.382 175.633 221.662 175.386 222.624C175.052 223.886 174.419 225.048 173.733 225.669C173.329 226.03 173.074 226.11 172.151 226.13C171.184 226.13 171.008 226.07 170.691 225.689C169.504 224.247 169.24 220.941 170.137 218.717C170.937 216.734 172.3 216.213 174.041 217.214Z" fill="black"/>
<path d="M198.336 204.192C196.032 205.154 194.371 208.52 193.808 213.408C193.606 215.191 193.606 218.858 193.817 220.601C194.08 222.804 194.529 224.587 195.223 226.13C195.918 227.693 196.569 228.554 197.562 229.276C198.512 229.937 200.218 229.937 201.167 229.276C203.058 227.933 204.412 224.808 204.913 220.621C205.159 218.597 205.133 214.951 204.869 213.007C204.289 208.7 203.067 205.955 201.123 204.593C200.429 204.112 199.004 203.912 198.336 204.192ZM200.429 207.879C201.748 208.68 202.803 211.084 203.155 214.109C203.313 215.472 203.304 218.457 203.137 219.919C202.653 224.227 200.719 227.012 198.741 226.27C196.727 225.509 195.452 221.863 195.452 216.894C195.452 211.465 197.061 207.658 199.365 207.618C199.708 207.598 200.183 207.718 200.429 207.879Z" fill="black"/>
<path d="M229.042 204.272C226.896 205.314 225.419 208.459 224.848 213.207C224.637 214.991 224.637 218.837 224.856 220.62C225.252 223.926 226.254 226.811 227.521 228.294C229.411 230.517 232.031 230.517 234.326 228.274L234.731 227.873L234.599 226.39C234.52 225.589 234.449 224.908 234.441 224.868C234.432 224.828 234.15 225.028 233.816 225.288C232.304 226.531 230.44 226.891 229.35 226.15C227.661 225.008 226.606 222.303 226.509 218.897L226.465 217.415H230.783H235.1L235.162 216.273C235.293 213.829 235.082 210.803 234.643 208.88C234.212 206.957 233.113 205.173 231.952 204.492C231.178 204.052 229.754 203.931 229.042 204.272ZM231.6 207.798C232.796 208.66 233.526 210.763 233.526 213.348V214.209H230.044H226.553L226.606 213.468C226.791 210.923 227.758 208.579 228.998 207.678C229.569 207.257 230.95 207.337 231.6 207.798Z" fill="black"/>
<path d="M268.741 204.292C266.71 205.294 265.25 208.179 264.6 212.506C264.38 213.949 264.353 214.39 264.353 216.814C264.345 219.859 264.459 221.021 264.969 223.225C265.373 224.988 265.945 226.43 266.657 227.492C267.405 228.594 267.95 229.115 268.803 229.516C271.344 230.718 273.779 228.254 274.843 223.425C275.371 221.001 275.38 221.021 274.342 221.021H273.48L273.366 221.722C273.217 222.684 272.487 224.447 271.977 225.088C269.647 227.953 266.772 225.008 266.226 219.198C266.174 218.597 266.147 217.275 266.165 216.193C266.2 214.49 266.244 214.069 266.517 212.767C267.07 210.122 268.152 208.319 269.497 207.798C270.992 207.217 272.592 208.74 273.19 211.284L273.401 212.206H274.263C275.265 212.206 275.239 212.326 274.738 210.022C273.779 205.614 271.15 203.09 268.741 204.292Z" fill="black"/>
<path d="M281.077 204.193C279.318 204.874 277.885 207.218 277.146 210.624C276.715 212.607 276.522 214.491 276.522 216.775C276.522 223.186 278.052 227.814 280.716 229.477C281.648 230.038 283.389 230.098 284.392 229.557C285.35 229.056 286.546 228.054 286.546 227.754C286.546 227.293 286.344 225.129 286.291 224.989C286.264 224.909 285.974 225.069 285.658 225.329C284.312 226.431 282.396 226.852 281.358 226.251C280.215 225.59 279.221 223.927 278.738 221.863C278.492 220.802 278.281 218.978 278.281 217.877V217.416H282.624H286.959L287.021 216.354C287.293 211.165 286.458 207.078 284.761 205.295C283.723 204.193 282.228 203.752 281.077 204.193ZM283.802 208.08C284.778 209.101 285.403 211.205 285.403 213.449V214.21H281.886H278.368L278.421 213.649C278.518 212.648 278.958 210.704 279.248 209.943C279.582 209.081 280.145 208.26 280.786 207.739C281.129 207.459 281.437 207.398 282.237 207.459C283.134 207.499 283.31 207.579 283.802 208.08Z" fill="black"/>
<path d="M298.899 204.113C298.802 204.153 298.503 204.293 298.239 204.414C297.36 204.814 296.331 206.097 295.637 207.679C294.485 210.304 294.054 213.149 294.133 217.576C294.195 221.423 294.608 223.767 295.645 226.151C297.228 229.738 299.884 230.92 302.548 229.217C303.313 228.716 304.131 227.934 304.131 227.694C304.122 227.373 303.884 225.009 303.849 224.929C303.832 224.889 303.48 225.11 303.067 225.43C300.218 227.614 297.721 226.572 296.516 222.725C296.164 221.583 295.865 219.56 295.865 218.298V217.416H300.165H304.473L304.535 216.975C304.561 216.735 304.597 215.633 304.597 214.531C304.597 211.045 304.236 208.861 303.33 206.898C302.495 205.095 301.475 204.233 299.954 204.093C299.47 204.053 298.996 204.053 298.899 204.113ZM301.317 208.02C302.293 209.062 302.838 210.745 302.952 213.049L303.014 214.211H299.479H295.936L295.997 213.549C296.191 211.466 296.947 209.202 297.773 208.28C298.459 207.519 298.697 207.419 299.822 207.459C300.701 207.499 300.895 207.579 301.317 208.02Z" fill="black"/>
<path d="M311.694 204.173C310.648 204.513 310.006 205.215 309.259 206.857C308.705 208.059 308.705 208.059 308.705 207.478C308.705 206.477 308.353 205.174 307.957 204.714C307.667 204.373 307.456 204.293 306.797 204.333C306.348 204.353 305.944 204.413 305.891 204.493C305.847 204.553 305.803 205.335 305.803 206.216V207.799H306.164C306.63 207.799 306.814 208.059 306.937 208.821C306.999 209.262 307.034 212.667 307.034 219.439V229.437H307.957H308.881V221.222C308.881 213.469 308.889 212.968 309.057 211.926C309.294 210.484 309.804 209.221 310.481 208.38C311.017 207.719 311.061 207.699 312.046 207.699C312.934 207.699 313.101 207.759 313.453 208.18C314.306 209.181 314.851 210.884 315.027 213.108C315.088 213.829 315.124 217.255 315.124 221.863V229.437H316.003H316.882V221.062C316.882 211.866 316.856 211.245 316.346 208.961C315.845 206.717 314.86 204.954 313.796 204.413C313.207 204.113 312.231 204.012 311.694 204.173Z" fill="black"/>
<path d="M323.342 204.292C322.111 204.913 321.135 206.135 320.343 208.038C319.429 210.242 318.998 212.706 318.928 216.132C318.84 220.259 319.315 223.365 320.423 225.909C321.144 227.572 321.724 228.373 322.726 229.135C325.329 231.118 328.327 228.634 329.4 223.565C329.576 222.784 329.734 221.882 329.769 221.562L329.822 221.021H328.96H328.09L327.835 222.123C327.404 224.026 326.648 225.308 325.61 225.929C323.799 227.011 321.865 224.907 321.073 221.021C320.845 219.879 320.801 219.438 320.765 217.475C320.713 214.69 320.906 213.067 321.478 211.264C322.225 208.98 323.333 207.758 324.705 207.738C326.067 207.718 327.07 208.84 327.694 211.083L328.002 212.185L328.864 212.205C329.866 212.205 329.84 212.326 329.303 209.982C328.292 205.534 325.733 203.09 323.342 204.292Z" fill="black"/>
<path d="M339.389 204.133C338.704 204.293 337.666 204.854 337.13 205.335L336.558 205.856L336.62 206.577C336.655 206.978 336.716 207.719 336.76 208.24L336.848 209.162L337.402 208.581C338.827 207.058 341.148 206.978 342.405 208.421C343.276 209.422 343.531 210.504 343.592 213.349C343.619 214.671 343.601 215.413 343.548 215.413C343.496 215.413 343.241 215.192 342.986 214.932C342.177 214.131 341.412 213.77 340.304 213.67C338.651 213.509 337.701 214.131 336.831 215.974C335.978 217.757 335.635 219.84 335.723 222.545C335.881 227.213 337.596 230.138 339.996 229.778C341.385 229.577 342.66 228.295 343.408 226.352L343.777 225.41L343.83 226.171C344.032 229.036 344.656 230.078 345.993 229.738L346.52 229.597L346.494 228.255C346.468 227.073 346.45 226.933 346.292 226.973C345.966 227.053 345.456 226.612 345.351 226.171C345.263 225.851 345.228 223.707 345.193 217.917L345.149 210.084L344.859 208.761C344.7 208.04 344.41 207.098 344.217 206.698C343.232 204.674 341.341 203.672 339.389 204.133ZM341.931 217.236C342.291 217.456 342.792 217.837 343.056 218.097L343.522 218.598V220.041C343.522 221.824 343.32 222.906 342.792 223.948C342.01 225.49 341.034 226.232 339.82 226.232C339.152 226.232 339.003 226.151 338.528 225.61C337.895 224.889 337.569 223.867 337.49 222.305C337.35 219.62 338.185 217.336 339.486 216.835C340.102 216.595 341.113 216.775 341.931 217.236Z" fill="black"/>
<path d="M110.866 204.793C110.866 204.893 112.026 210.503 113.451 217.255L116.036 229.536L116.423 229.596L116.818 229.656L119.377 217.455C120.793 210.743 121.945 205.094 121.945 204.913C121.945 204.633 121.813 204.593 120.995 204.593H120.045L119.061 209.642C118.524 212.426 117.742 216.554 117.328 218.817C116.906 221.081 116.537 222.985 116.502 223.085C116.467 223.165 116.071 221.282 115.623 218.878C115.165 216.473 114.356 212.286 113.82 209.561L112.844 204.593H111.859C111.27 204.593 110.866 204.673 110.866 204.793Z" fill="black"/>
<path d="M254.102 204.874C254.102 205.014 254.893 207.619 255.86 210.624C256.828 213.649 257.601 216.214 257.575 216.354C257.557 216.494 256.625 219.339 255.509 222.705C254.401 226.071 253.486 228.956 253.486 229.116C253.486 229.396 253.627 229.437 254.366 229.437H255.236L256.089 226.912C256.555 225.53 257.311 223.166 257.768 221.663C258.226 220.14 258.621 218.898 258.656 218.878C258.692 218.858 259.035 219.88 259.421 221.162C259.808 222.444 260.556 224.849 261.083 226.471L262.033 229.437H262.912C263.721 229.437 263.791 229.396 263.756 229.076C263.73 228.876 262.815 225.95 261.716 222.585L259.72 216.434L261.576 210.804C262.587 207.699 263.422 205.034 263.422 204.874C263.422 204.654 263.246 204.593 262.525 204.593L261.62 204.613L260.863 206.958C260.441 208.24 259.8 210.323 259.421 211.545C259.052 212.788 258.736 213.809 258.718 213.809C258.709 213.809 258.445 212.928 258.138 211.846C257.839 210.784 257.214 208.701 256.757 207.238L255.931 204.593H255.016C254.295 204.593 254.102 204.654 254.102 204.874Z" fill="black"/>
<path d="M107.438 217.115V229.437H108.362H109.285V217.115V204.794H108.362H107.438V217.115Z" fill="black"/>
<path d="M155.095 217.115V229.437H156.018H156.941V217.115V204.794H156.018H155.095V217.115Z" fill="black"/>
<path d="M189.649 217.115V229.437H190.572H191.495V217.115V204.794H190.572H189.649V217.115Z" fill="black"/>
<path d="M331.83 217.115V229.437H332.753H333.677V217.115V204.794H332.753H331.83V217.115Z" fill="black"/>
</svg>
