<svg width="776" height="300" viewBox="0 0 776 300" fill="none" xmlns="http://www.w3.org/2000/svg">
<path d="M88.8214 92.9873C40.1363 92.9873 0.666748 118.515 0.666748 150C0.666748 181.485 40.1363 207.012 88.8214 207.012C137.506 207.012 176.976 181.485 176.976 150C176.976 118.515 137.506 92.9873 88.8214 92.9873ZM88.8214 182.54C81.5847 182.54 75.6765 168.284 75.2919 150.342C79.6549 150.734 84.1857 150.944 88.8214 150.944C93.457 150.944 97.9878 150.734 102.351 150.342C101.966 168.284 96.058 182.54 88.8214 182.54ZM76.1939 136.1C78.1656 123.416 83.074 114.432 88.8214 114.432C94.5687 114.432 99.4771 123.416 101.449 136.1C97.4145 136.463 93.1773 136.659 88.8214 136.659C84.4654 136.659 80.2352 136.463 76.1939 136.1ZM88.8214 101.245C79.3542 101.245 71.3065 115.397 68.3279 135.135C50.4005 132.338 37.8849 125.975 37.8849 118.578C37.8849 108.593 60.6927 100.504 88.8214 100.504C116.95 100.504 139.758 108.6 139.758 118.578C139.758 125.975 127.242 132.331 109.315 135.135C106.336 115.39 98.2815 101.245 88.8214 101.245ZM13.3082 147.86C13.3082 138.197 17.0209 129.143 23.5095 121.354C23.4326 121.899 23.3976 122.451 23.3976 123.004C23.3976 135.184 41.6606 145.539 67.1323 149.363C67.1113 150.244 67.1043 151.139 67.1043 152.034C67.1043 174.723 73.467 193.937 82.2489 200.454C43.6253 198.125 13.3152 175.471 13.3152 147.867L13.3082 147.86ZM95.4008 200.447C104.183 193.93 110.545 174.716 110.545 152.027C110.545 151.132 110.538 150.244 110.517 149.356C135.989 145.539 154.252 135.177 154.252 122.997C154.252 122.444 154.21 121.892 154.14 121.347C160.622 129.136 164.342 138.19 164.342 147.853C164.342 175.457 134.031 198.111 95.4078 200.44L95.4008 200.447Z" fill="black"/>
<path d="M266.682 80H258.781V220H266.682V80Z" fill="black"/>
<path d="M395.181 188.18L366.822 153.025H366.605V188.18H348.489V111.835H366.605V142.893H366.927L394.209 111.835H417.29L384.399 146.991L419.233 188.187H395.188L395.181 188.18Z" fill="#DF0815"/>
<path d="M481.028 188.18L475.099 173.189H445.551L439.943 188.18H419.883L451.913 111.835H469.813L501.514 188.18H481.028ZM460.535 132.21L450.83 158.415H470.023L460.535 132.21Z" fill="#DF0815"/>
<path d="M561.799 188.18L531.063 138.251H530.741L531.175 188.18H513.275V111.835H534.3L564.925 161.653H565.246L564.813 111.835H582.712V188.18H561.792H561.799Z" fill="#DF0815"/>
<path d="M644.192 131.671C641.067 127.678 635.347 125.091 630.607 125.091C625.866 125.091 619.93 126.706 619.93 132.748C619.93 137.817 624.461 139.432 631.684 141.697C642.039 145.039 655.407 149.458 655.407 164.666C655.407 182.244 641.284 190.117 626.181 190.117C615.287 190.117 604.289 186.124 597.605 179.118L609.68 166.826C613.344 171.462 620.14 174.916 626.181 174.916C631.788 174.916 636.746 172.762 636.746 166.61C636.746 160.785 630.921 158.953 620.895 155.716C611.19 152.591 601.373 147.626 601.373 133.824C601.373 116.897 616.686 109.884 630.921 109.884C639.55 109.884 649.254 113.121 655.939 119.267L644.185 131.671H644.192Z" fill="#DF0815"/>
<path d="M724.747 188.18L718.818 173.189H689.27L683.662 188.18H663.602L695.632 111.835H713.532L745.233 188.18H724.747ZM704.261 132.21L694.556 158.415H713.749L704.261 132.21Z" fill="#DF0815"/>
<path d="M756.994 188.18V111.835H775.544V188.18H756.994Z" fill="#DF0815"/>
</svg>
