<svg width="431" height="300" viewBox="0 0 431 300" fill="none" xmlns="http://www.w3.org/2000/svg">
<path d="M114.185 73.4784C108.142 72.4226 94.0113 75.8445 85.4424 82.1887C87.1109 83.631 88.6569 85.1864 90.0898 86.855C91.6452 86.1291 93.276 85.4692 94.8032 85.0356C97.0184 84.6303 99.4977 84.8565 101.949 86.591C106.549 90.2015 115.099 96.244 120.991 90.6351C127.787 84.1589 121.632 74.7699 114.185 73.4784Z" fill="#515153"/>
<path d="M53.3241 70C27.7587 70 7.0293 89.1269 7.0293 112.722C7.0293 136.317 27.7587 155.454 53.3241 155.454C78.8801 155.454 99.6001 136.317 99.6001 112.722C99.6095 89.1363 78.8895 70 53.3241 70ZM43.1526 130.312C39.0897 130.312 35.7903 127.022 35.7903 122.95C35.7903 118.887 39.0897 115.588 43.1526 115.588C47.2156 115.588 50.5055 118.887 50.5055 122.95C50.5055 127.022 47.2156 130.312 43.1526 130.312ZM43.1526 109.866C39.0897 109.866 35.7903 106.566 35.7903 102.513C35.7903 98.4405 39.0897 95.1506 43.1526 95.1506C47.2156 95.1506 50.5055 98.4405 50.5055 102.513C50.5055 106.566 47.2156 109.866 43.1526 109.866ZM63.4956 130.312C59.4327 130.312 56.1427 127.022 56.1427 122.95C56.1427 118.887 59.4327 115.588 63.4956 115.588C67.5585 115.588 70.8579 118.887 70.8579 122.95C70.8579 127.022 67.5585 130.312 63.4956 130.312ZM63.4956 109.866C59.4327 109.866 56.1427 106.566 56.1427 102.513C56.1427 98.4405 59.4327 95.1506 63.4956 95.1506C67.5585 95.1506 70.8579 98.4405 70.8579 102.513C70.8579 106.566 67.5585 109.866 63.4956 109.866Z" fill="#515153"/>
<path d="M43.8318 167.236C13.2514 167.236 10.791 156.301 13.0817 148.307C13.6379 146.62 14.8068 143.5 16.5791 142.812L15.3159 141.294C14.5523 141.916 13.6002 142.717 12.8555 143.34C12.8555 143.34 12.8555 143.33 12.8461 143.33C12.667 143.49 12.4596 143.679 12.271 143.839C12.0542 144.028 11.8751 144.188 11.7714 144.273C6.20962 149.354 -1.03956 158.781 2.73115 171.271C8.55689 190.53 37.6856 188.268 37.6856 188.268C37.6856 188.268 51.9294 188.918 76.2033 188.918C100.477 188.918 105.323 202.511 105.323 202.511C118.595 169.499 92.0592 167.236 43.8318 167.236ZM15.2782 164.437C15.5233 164.851 15.4384 165.417 15.0896 165.709L11.1681 168.83C10.7722 169.15 10.1312 168.905 9.73523 168.273C9.32988 167.651 9.33931 166.944 9.75409 166.708L14.0621 164.144C14.4675 163.899 15.0236 164.031 15.2782 164.437ZM13.242 159.912C13.3645 160.402 13.0912 160.92 12.6387 161.062L7.84988 162.532C7.3974 162.674 6.87892 162.221 6.69981 161.505C6.50185 160.798 6.77523 160.147 7.25599 160.063L12.1862 159.177C12.6387 159.092 13.1006 159.412 13.242 159.912ZM6.30389 154.048C6.44529 153.304 6.94491 152.804 7.40682 152.927L11.3095 153.935C11.7714 154.058 12.0825 154.51 11.9882 154.934C11.9034 155.368 11.5263 155.717 11.0456 155.679L7.0109 155.462C6.54899 155.434 6.17192 154.793 6.30389 154.048ZM4.59765 156.518H8.21752C8.69829 156.537 9.09421 157.046 9.11307 157.659C9.09421 158.272 8.85854 158.828 8.36835 158.884L4.88988 159.318C4.43739 159.374 3.88121 158.828 3.88121 157.913C3.84351 157.018 4.11688 156.499 4.59765 156.518ZM5.87969 167.576C5.46491 167.802 4.83332 167.34 4.49395 166.529C4.15459 165.719 4.25828 164.927 4.70134 164.767L9.4053 163.041C9.85778 162.881 10.414 163.221 10.6496 163.796C10.8853 164.371 10.7345 165.021 10.3103 165.247L5.87969 167.576ZM9.48071 173.788C8.88683 173.147 8.69829 172.374 9.05651 172.063L12.8084 168.735C13.1666 168.424 13.8076 168.537 14.2224 168.999C14.6183 169.48 14.7974 170.064 14.4769 170.432L11.1681 174.193C10.8664 174.561 10.0557 174.457 9.48071 173.788ZM14.4486 172.035L17.5783 168.123C17.88 167.755 18.4456 167.708 18.8415 168.038C19.2374 168.368 19.4542 168.867 19.1903 169.291L16.4942 173.515C16.2491 173.901 15.5138 173.986 14.9388 173.533C14.3638 173.072 14.147 172.393 14.4486 172.035ZM20.1424 174.052L18.0119 178.586C17.814 179.02 17.0598 179.095 16.334 178.765C15.6175 178.351 15.2405 177.672 15.4856 177.266L18.0119 172.94C18.257 172.525 18.898 172.468 19.4448 172.789C20.0293 173.053 20.3403 173.618 20.1424 174.052ZM21.3773 176.908C20.6986 176.682 20.3403 176.041 20.5289 175.617L22.5085 171.017C22.7065 170.564 23.2438 170.441 23.8 170.63C24.3467 170.819 24.6672 171.337 24.5164 171.79L22.8761 176.522C22.7159 176.965 22.0466 177.144 21.3773 176.908ZM25.3365 181.15C25.2234 181.612 24.5258 181.829 23.7905 181.64C23.0458 181.461 22.5651 180.877 22.7065 180.424L24.2147 175.645C24.3561 175.193 24.9783 175.004 25.6099 175.155C26.2415 175.325 26.6657 175.834 26.5526 176.296L25.3365 181.15ZM28.2777 178.86C27.5895 178.728 27.1088 178.237 27.2219 177.776L28.3248 172.883C28.4285 172.421 29.0035 172.138 29.5974 172.251C30.1913 172.365 30.6061 172.845 30.5307 173.307L29.6823 178.247C29.588 178.718 28.9658 178.992 28.2777 178.86ZM32.7365 182.451C32.6894 182.932 32.0484 183.252 31.3037 183.139C30.559 183.036 30.0216 182.574 30.097 182.102L30.8512 177.153C30.9266 176.682 31.5111 176.371 32.1709 176.456C32.8214 176.55 33.3116 176.993 33.2739 177.464L32.7365 182.451ZM36.6204 178.992C36.6015 179.472 36.017 179.821 35.3195 179.793C34.6219 179.736 34.094 179.293 34.1317 178.822L34.5747 173.835C34.6219 173.364 35.1498 173.024 35.7719 173.081C36.3941 173.109 36.8749 173.524 36.856 173.995L36.6204 178.992ZM38.8356 183.667C38.0909 183.658 37.4971 183.262 37.5159 182.781L37.6667 177.776C37.6856 177.304 38.2323 176.927 38.8922 176.927C39.5521 176.946 40.0894 177.314 40.0988 177.794L40.1743 182.809C40.1837 183.271 39.5709 183.686 38.8356 183.667ZM43.5396 179.048C43.5208 179.519 42.9551 179.887 42.267 179.859C41.8993 179.84 41.0509 179.519 41.1169 179.029L40.9378 174.024C41.2206 173.552 40.7399 173.128 42.5498 173.128C43.2097 173.156 43.747 173.562 43.7281 174.033L43.5396 179.048ZM104.474 184.459C104.842 184.148 105.577 184.469 106.114 185.176C106.68 185.864 106.614 186.722 106.228 186.948L101.938 189.54C101.505 189.804 100.996 189.502 100.59 189.031C100.213 188.541 100.204 187.9 100.572 187.598L104.474 184.459ZM46.8955 182.904C46.8767 183.384 46.3111 183.752 45.6229 183.733C44.9348 183.705 44.388 183.3 44.4069 182.828L44.5765 177.823C44.5954 177.351 45.161 176.974 45.8397 177.003C46.5185 177.021 47.0558 177.427 47.0464 177.907L46.8955 182.904ZM50.4683 179.256C50.4588 179.736 49.8932 180.104 49.2145 180.085C48.5358 180.066 47.989 179.661 48.0079 179.19L48.1493 174.184C48.1587 173.713 48.7243 173.336 49.3936 173.354C50.0723 173.373 50.6097 173.769 50.6002 174.25L50.4683 179.256ZM53.8525 183.083C53.8431 183.554 53.2774 183.931 52.5893 183.912C51.9011 183.893 51.3544 183.498 51.3732 183.017L51.4958 178.011C51.5052 177.53 52.0708 177.163 52.7495 177.182C53.4283 177.2 53.975 177.596 53.9656 178.068L53.8525 183.083ZM57.3875 179.416C57.3781 179.887 56.8219 180.264 56.1432 180.255C55.455 180.236 54.9177 179.84 54.9271 179.369L55.0308 174.363C55.0403 173.882 55.5964 173.505 56.2752 173.524C56.9539 173.543 57.4912 173.939 57.4818 174.41L57.3875 179.416ZM60.8 183.205C60.7906 183.686 60.2344 184.063 59.5462 184.054C58.8581 184.044 58.3113 183.648 58.3208 183.168L58.4056 178.162C58.415 177.681 58.9712 177.304 59.6499 177.314C60.3287 177.323 60.8754 177.719 60.866 178.2L60.8 183.205ZM64.3162 179.51C64.3068 179.981 63.7506 180.368 63.0719 180.358C62.3931 180.349 61.8464 179.953 61.8464 179.482L61.9124 174.467C61.9218 173.995 62.478 173.618 63.1567 173.618C63.8354 173.628 64.3822 174.024 64.3727 174.495L64.3162 179.51ZM67.7381 183.29C67.7381 183.762 67.1725 184.148 66.4938 184.139C65.8056 184.129 65.2589 183.743 65.2683 183.262L65.3249 178.247C65.3343 177.776 65.8905 177.389 66.5692 177.398C67.2479 177.408 67.7947 177.794 67.7947 178.275L67.7381 183.29ZM71.2354 179.576C71.2354 180.057 70.6793 180.434 69.9911 180.434C69.3124 180.434 68.7656 180.038 68.7656 179.567L68.8033 174.552C68.8033 174.08 69.3595 173.694 70.0382 173.703C70.717 173.713 71.2637 174.099 71.2637 174.57L71.2354 179.576ZM74.6856 183.337C74.6856 183.818 74.1295 184.195 73.4413 184.195C72.7531 184.195 72.2064 183.809 72.2064 183.328L72.2347 178.313C72.2347 177.842 72.7908 177.455 73.4696 177.455C74.1483 177.455 74.6951 177.851 74.6951 178.322L74.6856 183.337ZM78.1547 179.595C78.1547 180.066 77.5985 180.453 76.9198 180.453C76.2316 180.453 75.6849 180.066 75.6849 179.585L75.6943 174.58C75.6943 174.099 76.241 173.722 76.9198 173.722C77.5985 173.722 78.1452 174.109 78.1452 174.589L78.1547 179.595ZM81.3881 183.46C81.3598 183.941 80.8507 184.299 80.2474 184.271C79.6441 184.233 79.1539 183.827 79.1445 183.347L79.1539 178.341C79.1539 177.86 79.7195 177.502 80.4265 177.54C81.1335 177.578 81.6803 177.992 81.652 178.464L81.3881 183.46ZM83.6976 180.698C83.0377 180.67 82.5381 180.255 82.5664 179.774L82.9246 174.778C82.9623 174.306 83.5939 173.948 84.3481 173.995C85.1022 174.014 85.6867 174.57 85.6207 175.023L84.9797 179.991C84.9137 180.481 84.3575 180.707 83.6976 180.698ZM88.609 179.312L87.506 184.205C87.4023 184.666 86.8462 184.968 86.2711 184.874C85.6961 184.78 85.2907 184.318 85.3567 183.846L86.1297 178.897C86.2051 178.426 86.8273 178.134 87.5343 178.256C88.2413 178.379 88.7221 178.85 88.609 179.312ZM90.1738 181.98C89.5611 181.791 89.1557 181.263 89.2783 180.802L90.5414 175.956C90.6546 175.494 91.3804 175.306 92.1534 175.541C92.9264 175.777 93.426 176.333 93.2563 176.786L91.5784 181.509C91.4181 181.952 90.7865 182.168 90.1738 181.98ZM95.2548 181.725L92.9264 186.156C92.7002 186.58 92.1346 186.74 91.6632 186.514C91.1919 186.288 90.9562 185.732 91.1259 185.289L92.9735 180.632C93.1432 180.189 93.822 180.076 94.4818 180.387C95.1323 180.707 95.4811 181.301 95.2548 181.725ZM95.5282 183.281L98.0546 178.944C98.2902 178.53 99.0632 178.577 99.7797 179.067C100.496 179.557 100.835 180.264 100.543 180.632L97.5078 184.619C97.2156 184.996 96.5557 185.015 96.0372 184.666C95.5188 184.318 95.2925 183.686 95.5282 183.281ZM95.9147 189.342C95.5659 189.012 95.5282 188.437 95.8393 188.07L99.0727 184.242C99.3743 183.875 100.062 183.988 100.6 184.497C101.137 185.006 101.288 185.675 100.92 185.996L97.1967 189.352C96.8479 189.672 96.2635 189.663 95.9147 189.342ZM99.9116 193.876C99.4686 194.046 98.9407 193.801 98.7616 193.349C98.6108 192.868 98.6767 192.387 99.1198 192.151L103.541 189.785C103.937 189.568 104.653 189.87 104.898 190.568C105.181 191.246 105.04 191.935 104.597 192.104L99.9116 193.876ZM106.803 195.262L104.342 195.762C103.871 195.856 103.428 195.413 103.23 194.819C103.06 194.216 103.286 193.603 103.739 193.452L106.265 192.632C106.718 192.481 107.189 192.934 107.415 193.754C107.726 194.791 107.265 195.168 106.803 195.262Z" fill="#515153"/>
<path d="M38.1381 198.109C12.5915 198.109 8.75485 189.672 9.95204 182.687C8.78313 181.848 7.68962 180.905 6.69038 179.84C2.29751 184.732 -1.88797 192.264 0.977765 201.766C6.24733 219.178 32.5763 217.132 32.5763 217.132C32.5763 217.132 45.4532 217.717 67.3987 217.717C89.3348 217.717 93.7277 230 93.7277 230C105.719 200.155 81.7274 198.109 38.1381 198.109ZM12.3182 195.573C12.535 195.95 12.4596 196.459 12.1485 196.723L8.60402 199.542C8.2458 199.825 7.66134 199.608 7.31255 199.033C6.94491 198.467 6.95433 197.836 7.3314 197.619L11.2247 195.3C11.5923 195.092 12.0825 195.215 12.3182 195.573ZM10.4705 191.482C10.5836 191.925 10.3385 192.396 9.92377 192.528L5.59688 193.857C5.1821 193.989 4.72019 193.575 4.55051 192.924C4.3714 192.283 4.6165 191.699 5.05955 191.623L9.51841 190.813C9.93319 190.737 10.348 191.039 10.4705 191.482ZM4.20172 186.184C4.33369 185.515 4.78618 185.062 5.20095 185.175L8.73599 186.08C9.15077 186.193 9.43357 186.599 9.34873 186.985C9.27332 187.381 8.93395 187.692 8.4909 187.655L4.84274 187.457C4.42796 187.438 4.0886 186.863 4.20172 186.184ZM2.65573 188.418H5.92682C6.36045 188.428 6.71866 188.89 6.73752 189.446C6.71866 190.002 6.51127 190.502 6.05879 190.558L2.91025 190.954C2.5049 191.011 1.99586 190.511 1.99586 189.691C1.977 188.871 2.23153 188.399 2.65573 188.418ZM3.82465 198.42C3.44758 198.627 2.88197 198.203 2.57089 197.468C2.25981 196.733 2.35407 196.026 2.75942 195.884L7.01089 194.329C7.41624 194.187 7.92529 194.489 8.13268 195.008C8.34007 195.526 8.20809 196.12 7.83102 196.318L3.82465 198.42ZM7.07688 204.029C6.53956 203.454 6.36987 202.747 6.69981 202.473L10.0934 199.466C10.414 199.184 10.9984 199.287 11.3755 199.702C11.7337 200.145 11.894 200.673 11.6112 201.003L8.62287 204.406C8.33064 204.726 7.59535 204.632 7.07688 204.029ZM11.564 202.445L14.392 198.91C14.6654 198.58 15.1745 198.533 15.5327 198.835C15.8909 199.127 16.0889 199.589 15.8438 199.966L13.4117 203.784C13.1948 204.133 12.5256 204.208 12.0071 203.793C11.4886 203.378 11.2906 202.775 11.564 202.445ZM16.7205 204.274L14.7974 208.375C14.6183 208.761 13.9301 208.837 13.2797 208.535C12.6387 208.158 12.2993 207.545 12.5161 207.177L14.7974 203.265C15.0142 202.898 15.5987 202.832 16.0889 203.133C16.6168 203.369 16.8996 203.878 16.7205 204.274ZM17.8328 206.857C17.2201 206.65 16.8996 206.065 17.0692 205.688L18.8509 201.531C19.03 201.125 19.5202 201.012 20.0198 201.173C20.5194 201.342 20.8022 201.814 20.6608 202.219L19.1808 206.499C19.0489 206.904 18.4361 207.064 17.8328 206.857ZM21.4056 210.684C21.3019 211.108 20.6797 211.306 20.001 211.127C19.3317 210.967 18.898 210.439 19.0206 210.034L20.378 205.707C20.51 205.302 21.0662 205.132 21.6412 205.264C22.2163 205.415 22.5933 205.877 22.4896 206.291L21.4056 210.684ZM24.0639 208.61C23.4417 208.488 23.0081 208.054 23.1024 207.63L24.0922 203.209C24.1865 202.785 24.7049 202.53 25.2423 202.634C25.7796 202.737 26.1567 203.171 26.0812 203.595L25.3177 208.064C25.2517 208.488 24.6861 208.733 24.0639 208.61ZM28.0986 211.863C28.0514 212.296 27.4764 212.579 26.8071 212.485C26.1378 212.39 25.6476 211.976 25.7136 211.551L26.3923 207.074C26.4583 206.65 26.9956 206.367 27.5801 206.452C28.1646 206.536 28.617 206.942 28.5699 207.366L28.0986 211.863ZM31.6147 208.733C31.5959 209.167 31.068 209.487 30.4364 209.449C29.8048 209.402 29.324 209.006 29.3712 208.573L29.7671 204.057C29.8048 203.624 30.2856 203.322 30.8512 203.369C31.4074 203.397 31.8504 203.765 31.8316 204.199L31.6147 208.733ZM33.6132 212.956C32.9345 212.947 32.4066 212.588 32.416 212.155L32.548 207.63C32.5669 207.196 33.057 206.857 33.6604 206.866C34.2542 206.885 34.7444 207.215 34.7539 207.649L34.8198 212.174C34.8387 212.607 34.2825 212.975 33.6132 212.956ZM37.8741 208.789C37.8553 209.223 37.3462 209.553 36.7241 209.525C36.3941 209.515 35.6211 209.214 35.6871 208.78L35.5174 204.255C35.7719 203.831 35.3477 203.444 36.9691 203.444C37.5725 203.473 38.0532 203.831 38.0344 204.265L37.8741 208.789ZM40.9001 212.277C40.8907 212.711 40.3722 213.041 39.75 213.022C39.1279 213.003 38.6377 212.636 38.6565 212.202L38.8168 207.677C38.8356 207.243 39.3353 206.914 39.9574 206.932C40.5702 206.951 41.0604 207.319 41.0415 207.752L40.9001 212.277ZM44.1241 208.978C44.1146 209.412 43.6056 209.751 42.9928 209.732C42.3707 209.713 41.8899 209.355 41.8993 208.921L42.0313 204.397C42.0407 203.963 42.5498 203.633 43.1625 203.652C43.7753 203.671 44.2655 204.029 44.2466 204.463L44.1241 208.978ZM47.1878 212.438C47.1783 212.871 46.6693 213.201 46.0471 213.192C45.425 213.182 44.9348 212.815 44.9442 212.39L45.0573 207.856C45.0667 207.423 45.5758 207.093 46.1885 207.102C46.8013 207.111 47.2915 207.47 47.282 207.903L47.1878 212.438ZM50.3929 209.119C50.3834 209.553 49.8744 209.892 49.2616 209.874C48.6489 209.864 48.1493 209.496 48.1587 209.072L48.253 204.538C48.2624 204.104 48.7715 203.774 49.3748 203.784C49.9875 203.793 50.4777 204.151 50.4683 204.585L50.3929 209.119ZM53.466 212.551C53.4566 212.984 52.9569 213.324 52.3348 213.314C51.7126 213.305 51.2224 212.947 51.2318 212.513L51.3073 207.988C51.3167 207.555 51.8163 207.215 52.4385 207.225C53.0512 207.234 53.5414 207.592 53.5414 208.026L53.466 212.551ZM56.6428 209.204C56.6428 209.638 56.1338 209.987 55.521 209.977C54.9083 209.968 54.4087 209.61 54.4181 209.176L54.4841 204.651C54.4935 204.217 54.9931 203.878 55.6059 203.888C56.2186 203.897 56.7088 204.255 56.7088 204.679L56.6428 209.204ZM59.7442 212.626C59.7442 213.05 59.2352 213.399 58.6224 213.39C58.0003 213.38 57.5101 213.031 57.5101 212.598L57.5572 208.064C57.5572 207.63 58.0662 207.291 58.679 207.3C59.2917 207.309 59.7913 207.658 59.7819 208.092L59.7442 212.626ZM62.9022 209.261C62.9022 209.694 62.4026 210.034 61.7804 210.034C61.1676 210.024 60.668 209.676 60.668 209.242L60.7057 204.708C60.7057 204.274 61.2054 203.935 61.8275 203.935C62.4403 203.944 62.9305 204.293 62.9305 204.717L62.9022 209.261ZM66.0224 212.664C66.0224 213.097 65.5228 213.446 64.9006 213.437C64.2785 213.437 63.7789 213.079 63.7883 212.654L63.8166 208.12C63.8166 207.687 64.3162 207.338 64.9384 207.347C65.5511 207.347 66.0507 207.705 66.0507 208.13L66.0224 212.664ZM69.1615 209.28C69.1615 209.713 68.6619 210.062 68.0492 210.053C67.4364 210.053 66.9368 209.704 66.9368 209.27L66.9463 204.745C66.9463 204.312 67.4459 203.963 68.0586 203.963C68.6714 203.963 69.171 204.321 69.171 204.745L69.1615 209.28ZM72.0838 212.777C72.065 213.211 71.5937 213.531 71.0563 213.503C70.5096 213.475 70.0665 213.097 70.0665 212.664L70.0759 208.13C70.0759 207.696 70.5944 207.375 71.226 207.404C71.8576 207.441 72.3572 207.809 72.3289 208.243L72.0838 212.777ZM74.1672 210.279C73.5733 210.241 73.1114 209.874 73.1491 209.449L73.479 204.934C73.5073 204.5 74.0823 204.189 74.7705 204.217C75.4492 204.236 75.9771 204.745 75.9205 205.151L75.3361 209.647C75.2701 210.081 74.761 210.288 74.1672 210.279ZM77.6174 213.437C77.5231 213.861 77.0235 214.134 76.505 214.05C75.9865 213.965 75.6189 213.55 75.6849 213.126L76.3824 208.648C76.4484 208.224 77.014 207.96 77.6456 208.073C78.2772 208.177 78.7109 208.601 78.6166 209.025L77.6174 213.437ZM80.0212 211.438C79.465 211.269 79.1068 210.788 79.2105 210.373L80.3511 205.99C80.4548 205.565 81.1147 205.405 81.8123 205.613C82.5098 205.829 82.9623 206.329 82.8115 206.734L81.2938 211.005C81.1524 211.41 80.5774 211.608 80.0212 211.438ZM84.6214 211.203L82.5193 215.218C82.3119 215.596 81.8028 215.746 81.3786 215.539C80.9544 215.341 80.7376 214.841 80.8884 214.436L82.557 210.222C82.7078 209.817 83.3205 209.713 83.9239 210.005C84.5083 210.288 84.8194 210.826 84.6214 211.203ZM84.8665 212.607L87.1478 208.695C87.3646 208.318 88.0622 208.365 88.7126 208.799C89.3631 209.242 89.6648 209.883 89.4008 210.222L86.6576 213.823C86.3937 214.163 85.7998 214.182 85.3284 213.861C84.8571 213.55 84.6497 212.984 84.8665 212.607ZM85.2153 218.094C84.8948 217.801 84.8665 217.274 85.1399 216.944L88.0716 213.484C88.345 213.145 88.9672 213.248 89.4479 213.71C89.9381 214.172 90.0701 214.775 89.7402 215.068L86.3748 218.103C86.0637 218.386 85.5264 218.386 85.2153 218.094ZM88.8258 222.194C88.4204 222.345 87.9491 222.128 87.7888 221.714C87.6474 221.28 87.7134 220.846 88.1093 220.629L92.1063 218.49C92.4645 218.292 93.1055 218.565 93.3318 219.187C93.5863 219.809 93.4637 220.422 93.0584 220.573L88.8258 222.194ZM95.613 222.081C95.8958 223.014 95.4716 223.363 95.0569 223.448L92.8321 223.901C92.4079 223.985 92.0026 223.589 91.8329 223.043C91.6727 222.496 91.88 221.94 92.2854 221.798L94.5667 221.063C94.9814 220.922 95.4057 221.336 95.613 222.081ZM94.4347 214.323C94.9437 214.945 94.8872 215.728 94.5384 215.925L90.664 218.273C90.2681 218.508 89.8156 218.244 89.4479 217.82C89.1086 217.377 89.0992 216.802 89.4291 216.519L92.9547 213.672C93.2846 213.399 93.9539 213.682 94.4347 214.323Z" fill="#005D9F"/>
<path d="M424.568 96.9697C421.439 96.9697 418.893 99.515 418.893 102.645C418.893 105.774 421.439 108.32 424.568 108.32C427.688 108.32 430.243 105.774 430.243 102.645C430.243 99.515 427.698 96.9697 424.568 96.9697ZM424.568 107.424C421.929 107.424 419.779 105.275 419.779 102.645C419.779 100.015 421.919 97.8747 424.568 97.8747C427.198 97.8747 429.338 100.024 429.338 102.645C429.348 105.275 427.198 107.424 424.568 107.424Z" fill="#515153"/>
<path d="M421.561 106.058V99.2422H424.587C425.19 99.2422 425.652 99.2987 425.963 99.4307C426.284 99.5533 426.538 99.7701 426.727 100.081C426.915 100.392 427.01 100.732 427.01 101.109C427.01 101.589 426.849 102.004 426.538 102.334C426.227 102.674 425.747 102.871 425.087 102.975C425.322 103.088 425.511 103.201 425.624 103.315C425.897 103.56 426.142 103.852 426.378 104.22L427.566 106.077H426.425L425.53 104.653C425.256 104.248 425.049 103.937 424.87 103.71C424.7 103.494 424.549 103.343 424.417 103.258C424.285 103.173 424.153 103.117 424.003 103.079C423.899 103.06 423.739 103.051 423.503 103.051H422.457V106.077H421.561V106.058ZM422.466 102.24H424.408C424.813 102.24 425.143 102.193 425.379 102.108C425.605 102.023 425.784 101.882 425.916 101.703C426.029 101.514 426.095 101.307 426.095 101.09C426.095 100.769 425.982 100.505 425.747 100.298C425.501 100.091 425.143 99.9869 424.634 99.9869H422.475V102.24H422.466Z" fill="#515153"/>
<path d="M190.461 132.395V135.496C190.461 140.078 189.754 144.244 188.349 148.006C186.944 151.758 184.965 154.972 182.42 157.64C179.865 160.298 176.811 162.353 173.257 163.786C169.703 165.219 165.781 165.945 161.483 165.945C157.354 165.945 153.498 165.125 149.916 163.494C146.334 161.863 143.185 159.638 140.48 156.829C137.774 154.02 135.644 150.721 134.079 146.941C132.514 143.16 131.732 139.116 131.732 134.818C131.732 130.519 132.514 126.494 134.079 122.733C135.644 118.981 137.774 115.7 140.48 112.891C143.185 110.082 146.325 107.857 149.916 106.226C153.498 104.586 157.354 103.775 161.483 103.775C164.462 103.775 167.356 104.19 170.165 105.02C172.974 105.859 175.576 107.103 177.998 108.762C180.402 110.421 182.57 112.495 184.494 114.993C186.407 117.491 187.944 120.366 189.094 123.638H181.354C179.516 119.678 176.867 116.558 173.398 114.267C169.929 111.967 165.951 110.827 161.492 110.827C158.4 110.827 155.478 111.458 152.772 112.721C150.048 113.985 147.663 115.71 145.636 117.916C143.591 120.121 141.988 122.676 140.819 125.57C139.641 128.464 139.047 131.547 139.047 134.818C139.047 138.079 139.641 141.181 140.819 144.103C141.988 147.025 143.591 149.589 145.636 151.795C147.663 154.001 150.048 155.745 152.772 156.999C155.487 158.253 158.4 158.884 161.492 158.884C164.584 158.884 167.393 158.403 169.92 157.423C172.437 156.452 174.633 155.085 176.49 153.332C178.357 151.588 179.837 149.523 180.93 147.148C182.024 144.772 182.712 142.199 182.985 139.446H161.916V132.395H190.461Z" fill="#515153"/>
<path d="M242.054 164.897H234.739V142.716H207.222V164.897H199.907V124.767C199.907 121.788 200.435 119.017 201.5 116.462C202.565 113.908 204.017 111.683 205.883 109.788C207.74 107.893 209.965 106.404 212.548 105.32C215.131 104.226 217.931 103.68 220.976 103.68C224.011 103.68 226.811 104.226 229.394 105.32C231.977 106.413 234.201 107.903 236.058 109.788C237.915 111.683 239.377 113.908 240.442 116.462C241.498 119.026 242.035 121.788 242.035 124.767V164.897H242.054ZM234.748 124.824C234.748 122.873 234.399 121.053 233.721 119.366C233.032 117.678 232.09 116.189 230.883 114.898C229.686 113.606 228.234 112.588 226.537 111.843C224.85 111.099 222.993 110.731 220.994 110.731C219.043 110.731 217.214 111.099 215.527 111.843C213.839 112.588 212.378 113.606 211.143 114.898C209.918 116.189 208.956 117.678 208.268 119.366C207.58 121.053 207.231 122.882 207.231 124.824V135.655H234.748V124.824Z" fill="#515153"/>
<path d="M283.963 105.273C286.518 106.329 288.733 107.799 290.628 109.666C292.513 111.532 294.012 113.738 295.096 116.293C296.19 118.847 296.736 121.619 296.736 124.598V164.897H289.421V124.654C289.421 122.712 289.063 120.874 288.347 119.149C287.63 117.433 286.64 115.953 285.387 114.718C284.123 113.484 282.662 112.503 281.003 111.796C279.335 111.08 277.562 110.721 275.677 110.721C273.782 110.721 272.001 111.08 270.342 111.796C268.682 112.513 267.221 113.484 265.958 114.718C264.704 115.944 263.714 117.424 262.998 119.149C262.282 120.865 261.923 122.703 261.923 124.654V164.897H254.618V124.598C254.618 121.609 255.155 118.847 256.248 116.293C257.333 113.738 258.822 111.532 260.717 109.666C262.612 107.799 264.836 106.338 267.381 105.273C269.927 104.208 272.689 103.68 275.686 103.68C278.646 103.68 281.409 104.208 283.963 105.273Z" fill="#515153"/>
<path d="M347.693 106.047C351.304 107.631 354.452 109.799 357.12 112.589C359.788 115.37 361.89 118.66 363.408 122.44C364.926 126.23 365.689 130.33 365.689 134.752C365.689 139.116 364.916 143.189 363.37 146.978C361.815 150.758 359.703 154.067 357.045 156.876C354.368 159.695 351.228 161.901 347.618 163.503C343.998 165.115 340.161 165.916 336.08 165.916C331.998 165.916 328.152 165.115 324.541 163.503C320.921 161.901 317.782 159.695 315.115 156.876C312.437 154.058 310.326 150.758 308.789 146.978C307.243 143.189 306.47 139.107 306.47 134.752C306.47 130.387 307.243 126.324 308.789 122.563C310.335 118.811 312.447 115.521 315.115 112.702C317.782 109.884 320.921 107.678 324.541 106.075C328.152 104.463 331.998 103.662 336.08 103.662C340.209 103.681 344.083 104.463 347.693 106.047ZM344.733 157.036C347.429 155.802 349.796 154.095 351.813 151.918C353.849 149.74 355.452 147.185 356.63 144.263C357.799 141.341 358.383 138.192 358.383 134.808C358.383 131.367 357.808 128.191 356.668 125.268C355.527 122.337 353.953 119.81 351.954 117.661C349.946 115.512 347.59 113.824 344.865 112.589C342.15 111.364 339.219 110.742 336.08 110.742C332.978 110.742 330.094 111.354 327.407 112.589C324.711 113.824 322.354 115.53 320.328 117.708C318.301 119.886 316.698 122.44 315.529 125.363C314.36 128.285 313.776 131.443 313.776 134.827C313.776 138.211 314.36 141.379 315.529 144.329C316.698 147.28 318.31 149.834 320.328 151.984C322.364 154.133 324.72 155.82 327.407 157.055C330.094 158.281 332.988 158.903 336.08 158.903C339.162 158.875 342.047 158.262 344.733 157.036Z" fill="#515153"/>
<path d="M404.681 105.273C407.226 106.329 409.451 107.799 411.346 109.666C413.231 111.532 414.721 113.738 415.805 116.293C416.898 118.847 417.445 121.619 417.445 124.598V164.897H410.13V124.654C410.13 122.712 409.772 120.874 409.055 119.149C408.329 117.433 407.349 115.953 406.086 114.718C404.822 113.484 403.361 112.503 401.702 111.796C400.034 111.08 398.261 110.721 396.376 110.721C394.481 110.721 392.7 111.08 391.041 111.796C389.381 112.513 387.92 113.484 386.648 114.718C385.384 115.944 384.404 117.424 383.688 119.149C382.971 120.865 382.613 122.703 382.613 124.654V164.897H375.298V124.598C375.298 121.609 375.835 118.847 376.929 116.293C378.022 113.738 379.512 111.532 381.397 109.666C383.282 107.799 385.516 106.338 388.062 105.273C390.607 104.208 393.378 103.68 396.367 103.68C399.364 103.68 402.126 104.208 404.681 105.273Z" fill="#515153"/>
</svg>
