<svg width="567" height="300" viewBox="0 0 567 300" fill="none" xmlns="http://www.w3.org/2000/svg">
<g clip-path="url(#clip0_345_287)">
<mask id="mask0_345_287" style="mask-type:luminance" maskUnits="userSpaceOnUse" x="0" y="75" width="567" height="150">
<path d="M566.368 75H0V225H566.368V75Z" fill="white"/>
</mask>
<g mask="url(#mask0_345_287)">
<path d="M566.368 75H0V225H566.368V75Z" fill="white"/>
<path d="M559.395 81.8789H421.289V218.122H559.395V81.8789Z" fill="black"/>
<path d="M421.29 81.8789H6.97266V218.122H421.29V81.8789Z" fill="#FFCC00"/>
<path d="M76.1597 132.937H88.2276V178.175H104.586V132.937H116.653V121.826H76.1597V132.937Z" fill="black"/>
<path d="M168.14 175.265C167.603 174.472 167.335 173.149 167.335 171.032L166.799 157.276C166.799 155.424 166.263 154.101 164.922 152.779C163.581 151.72 161.704 150.662 159.558 150.133C162.509 149.075 164.654 147.223 165.726 144.842C167.067 142.461 167.603 139.551 167.603 135.847C167.335 130.821 165.458 127.117 162.24 125.001C159.022 122.884 154.731 121.826 149.636 121.826H127.915V178.175H142.932V156.218H146.418C148.564 156.218 150.173 156.747 150.977 157.54C151.782 158.334 152.318 159.922 152.318 161.773V173.414C152.318 175.53 152.586 176.853 153.122 177.381C153.659 177.911 155 178.175 156.876 178.175H170.285V176.323C169.481 176.323 168.676 176.059 168.14 175.265ZM152.05 139.286C152.05 141.667 151.513 143.519 150.173 144.577C148.832 145.636 147.491 146.165 146.15 146.165H142.664V131.35C145.078 131.35 146.954 131.615 148.564 132.144C150.173 132.673 150.977 134.525 151.513 136.112C151.782 136.906 152.05 137.435 152.05 138.228C152.05 138.493 152.05 139.022 152.05 139.286Z" fill="black"/>
<path d="M271.653 124.471C267.63 121.826 262.535 120.503 256.099 120.503C248.054 120.503 242.422 122.09 239.204 125.265C235.986 128.439 234.377 132.143 234.377 136.641V161.773C234.377 168.122 236.255 172.884 239.741 175.794C243.227 178.704 248.59 180.027 256.099 180.027C257.172 180.027 258.244 180.027 259.317 180.027C260.39 180.027 261.462 179.762 262.535 179.498C266.29 178.704 269.775 177.381 272.726 175.265C275.944 173.149 277.553 169.71 277.553 165.477V156.482H261.462V164.418C261.462 166.27 260.926 167.593 259.853 168.386C258.781 169.444 257.708 169.974 256.368 169.974H256.099H255.831H255.563H255.295C253.953 169.974 252.881 169.444 252.077 168.651C251.004 167.858 250.468 166.799 250.468 165.477V135.318C250.468 133.995 251.004 132.937 252.077 132.143C253.149 131.35 254.222 131.085 255.295 130.82H255.563H255.831H256.099H256.368C257.44 130.82 258.513 131.35 259.586 131.879C260.658 132.408 260.926 133.466 260.926 134.524V141.667H277.821V136.905C277.553 131.35 275.407 127.117 271.653 124.471Z" fill="black"/>
<path d="M325.018 124.471C320.46 121.826 315.365 120.238 309.465 120.238C303.565 120.238 298.738 121.561 294.984 124.206C291.229 126.852 289.084 130.027 288.28 133.201C287.475 137.963 288.548 142.99 292.302 146.164C295.252 148.81 298.47 150.926 301.956 152.778C303.029 153.307 304.102 153.836 305.174 154.365C306.247 154.894 307.32 155.424 308.392 155.952C310.538 157.01 312.147 158.069 313.756 159.392C315.096 160.45 315.901 162.037 315.901 163.625C315.901 165.212 315.365 166.534 314.292 167.328C313.219 168.386 312.147 168.916 310.805 169.18C310.538 169.18 310.538 169.18 310.269 169.18H309.733H309.465H309.196C307.588 169.18 306.247 168.386 304.906 167.064C303.565 165.741 303.029 163.889 303.029 161.243C303.029 160.979 303.029 160.979 303.029 160.715C303.029 160.45 303.029 159.656 303.297 159.392V159.127V158.862H287.207V159.392C287.207 159.656 287.207 159.921 287.207 159.921V160.185V160.45C287.207 160.715 287.207 160.979 287.207 161.243C287.207 161.508 287.207 161.773 287.207 162.037C287.207 167.328 288.816 171.561 292.302 174.471C295.52 177.381 300.347 178.968 306.515 179.233C311.342 179.498 316.705 178.704 321.264 177.117C322.605 176.587 323.678 176.058 324.75 175.529C329.309 173.149 331.723 168.651 331.723 161.773V160.45C331.454 155.952 330.114 152.778 327.164 150.397C324.482 148.016 321.264 146.164 318.046 144.577C316.974 144.048 315.901 143.783 315.096 143.254C314.024 142.725 313.22 142.46 312.414 141.931C310.269 140.873 308.124 139.815 306.783 138.757C305.174 137.699 304.37 136.111 304.37 134.524C304.37 133.466 304.906 132.408 305.979 131.614C307.051 130.82 308.124 130.291 309.465 130.291H309.733H310.001C310.269 130.291 310.538 130.291 310.538 130.291C310.805 130.291 311.074 130.291 311.342 130.556C312.683 130.82 313.756 131.614 314.829 132.672C315.901 133.73 316.438 135.318 316.438 137.169V138.757H332.527V137.699C331.723 131.614 329.578 127.117 325.018 124.471Z" fill="black"/>
<path d="M372.214 121.826H352.906L336.816 178.175H353.711L355.856 167.064H368.46L370.605 178.175H387.768L372.214 121.826ZM357.465 156.747L362.024 131.879L366.315 156.747H357.465Z" fill="black"/>
<path d="M192.542 121.826L176.453 178.175H193.347L195.492 167.064H208.096L210.242 178.175H227.404L211.851 121.826H192.542ZM197.102 156.747L201.66 131.879L205.951 156.747H197.102Z" fill="black"/>
<path fill-rule="evenodd" clip-rule="evenodd" d="M526.143 183.995L493.158 155.424L458.833 183.995H526.143Z" fill="#FFCC00"/>
<path fill-rule="evenodd" clip-rule="evenodd" d="M510.857 117.328V130.291H520.243V174.207L531.238 183.731H535.261V130.291H544.646V117.328H510.857Z" fill="white"/>
<path fill-rule="evenodd" clip-rule="evenodd" d="M455.883 169.18C455.883 171.031 454.274 172.619 452.397 172.619C450.52 172.619 449.179 171.031 449.179 169.18V130.82C449.179 128.968 450.52 127.381 452.397 127.381C454.274 127.381 455.883 128.968 455.883 130.82V144.576H469.56V130.555C469.56 122.619 464.465 116.27 452.397 116.27C440.061 116.27 435.234 122.619 435.234 130.555V170.238C435.234 177.91 441.134 183.73 448.911 183.73H453.201L466.61 172.619C469.023 170.503 469.56 167.857 469.56 165.476V155.423H455.883V169.18Z" fill="white"/>
<path fill-rule="evenodd" clip-rule="evenodd" d="M493.159 117.328H483.773L472.778 168.122L493.427 151.191L514.881 169.709L502.545 117.328H493.159ZM493.159 147.751H489.405L493.159 128.704L496.913 148.016H493.159V147.751Z" fill="white"/>
<path d="M551.349 119.445C552.154 119.445 552.154 119.18 552.154 118.916C552.154 118.651 551.886 118.387 551.349 118.387H550.545V119.445H551.349ZM550.545 119.974V122.09H549.74V117.329H551.349C552.154 117.329 553.226 117.593 553.226 118.651C553.226 119.18 552.958 119.709 552.154 119.709C552.69 119.709 552.958 120.239 552.958 120.503C552.958 121.032 552.958 121.561 553.226 121.826H552.422C552.422 121.561 552.422 121.297 552.154 121.032C552.154 120.768 552.154 120.239 551.886 119.974C551.617 119.709 551.349 119.709 551.081 119.709H550.545M554.567 119.709C554.567 117.858 553.226 116.535 551.349 116.535C549.472 116.535 548.131 118.122 548.131 119.709C548.131 121.561 549.74 122.884 551.349 122.884C553.226 123.149 554.567 121.561 554.567 119.709ZM547.327 119.709C547.327 117.593 549.204 115.741 551.349 115.741C553.495 115.741 555.372 117.593 555.372 119.709C555.372 121.826 553.495 123.678 551.349 123.678C549.204 123.678 547.327 122.09 547.327 119.709Z" fill="white"/>
</g>
</g>
<defs>
<clipPath id="clip0_345_287">
<rect width="566.368" height="150" fill="white" transform="translate(0 75)"/>
</clipPath>
</defs>
</svg>
