<svg width="1268" height="300" viewBox="0 0 1268 300" fill="none" xmlns="http://www.w3.org/2000/svg">
<path d="M0 92.7447V96.0384H8.4538V203.962H0V207.036H28.4355V203.962H19.7621V96.0384H28.4355V92.7447H0ZM70.3751 207.145V204.071H56.871V96.9167L117.145 207.145H122.415V96.0384H127.795V92.7447H104.41V96.0384H118.463V186.066L66.3129 92.8545H44.4648V96.1482H52.8088V204.071H44.4648V207.145H70.4849H70.3751ZM303.897 90.3294C329.369 90.3294 338.371 109.982 339.799 140.613C335.846 124.584 321.793 114.593 303.678 114.593C285.563 114.593 270.961 124.913 267.447 141.382C268.875 110.86 278.756 90.2196 303.897 90.2196M339.689 159.607C338.042 189.469 328.6 209.561 303.897 209.561C279.195 209.561 268.655 189.689 267.338 158.289C270.961 174.758 285.124 185.188 303.568 185.188C322.013 185.188 335.627 175.416 339.689 159.497M325.416 92.086C349.79 100.101 364.501 122.168 364.501 150.055C364.501 177.941 349.46 200.339 324.648 208.243C344.3 199.131 354.51 176.185 354.51 147.859C354.51 119.533 343.422 100.979 325.416 92.3056M252.626 152.69C252.626 179.808 264.703 200.229 283.806 208.353C258.335 200.887 242.964 178.49 242.964 149.835C242.964 121.18 258.445 98.6734 283.916 91.3175C263.824 100.32 252.516 123.156 252.516 152.58M454.858 101.967C445.197 93.5133 433.01 90 420.055 90C397.877 90 376.798 102.736 376.798 127.109C376.798 165.206 429.826 153.898 429.826 174.758C429.826 195.618 420.714 186.725 412.479 186.725C404.245 186.725 395.791 182.662 390.741 175.965L372.955 195.618C383.715 205.608 396.45 210 411.052 210C434.437 210 454.639 197.923 454.639 172.452C454.639 132.598 402.488 145.883 402.488 125.133C402.488 104.382 412.26 113.385 419.286 113.385C426.313 113.385 433.339 115.801 437.402 120.851L454.529 102.077H454.639L454.858 101.967ZM150.192 92.7447H227.484V116.24H175.224V137.429H224.41V160.595H175.224V183.76H230.119V207.145H150.302V92.8545L150.192 92.7447Z" fill="#0C0C0C"/>
<path d="M618.948 130.952C617.858 130.952 617.264 129.635 617.264 127.329V123.925C617.264 120.522 616.521 118.875 614.837 118.875H597.157C592.353 118.875 591.413 120.522 591.413 129.305V170.476C591.413 179.259 592.304 180.906 597.157 180.906H614.837C616.521 180.906 617.264 179.259 617.264 175.856V166.194H606.567C605.477 166.194 604.883 164.877 604.883 162.571V144.456C604.883 142.151 605.477 140.833 606.567 140.833H630.091C631.18 140.833 631.774 142.151 631.774 144.456V181.675C631.774 201.108 628.753 207.475 619.641 207.475H588.936C580.319 207.475 576.506 199.68 576.506 181.126V118.546C576.506 100.101 580.319 92.1963 588.936 92.1963H619.641C628.753 92.1963 631.774 98.5641 631.774 117.997V127.109C631.774 129.415 631.18 130.732 630.091 130.732H618.948V130.952Z" fill="#0C0C0C"/>
<path d="M715.025 118.765V141.601C715.025 160.046 711.41 169.488 702.644 169.488H702.446L716.659 203.962C717.254 205.389 716.857 207.585 716.065 207.585H701.455C700.069 207.585 699.475 206.926 698.633 204.84L685.905 171.245H675.505V204.072C675.505 206.377 674.861 207.695 673.722 207.695H662.233C661.143 207.695 660.549 206.377 660.549 204.072V96.1484C660.549 93.8429 661.143 92.5254 662.233 92.5254H702.694C711.459 92.5254 715.074 100.32 715.074 118.875M675.455 144.675H695.067C699.326 144.675 700.019 143.248 700.019 135.343V128.317C700.019 120.522 699.375 118.985 695.067 118.985H675.455V144.785V144.675Z" fill="#0C0C0C"/>
<path d="M795.994 92.3057C797.084 92.3057 797.678 93.6231 797.678 95.9287V115.252C797.678 117.557 797.084 118.875 795.994 118.875H760.485V136.88H790.2C791.24 136.88 791.884 138.198 791.884 140.503V158.619C791.884 160.924 791.24 162.242 790.2 162.242H760.485V181.235H795.994C797.084 181.235 797.678 182.553 797.678 184.858V204.181C797.678 206.487 797.084 207.804 795.994 207.804H747.213C746.124 207.804 745.529 206.487 745.529 204.181V96.2581C745.529 93.9525 746.124 92.635 747.213 92.635H795.994V92.3057Z" fill="#0C0C0C"/>
<path d="M863.397 207.585C862.208 207.585 861.465 206.817 861.02 204.621L841.557 118.656V203.962C841.557 206.268 840.913 207.585 839.873 207.585H829.473C828.383 207.585 827.789 206.268 827.789 203.962V96.0391C827.789 93.7335 828.383 92.416 829.473 92.416H848.985C850.174 92.416 850.917 93.1845 851.362 95.3803L870.825 181.455V96.0391C870.825 93.7335 871.469 92.416 872.608 92.416H882.909C883.999 92.416 884.593 93.7335 884.593 96.0391V203.962C884.593 206.268 883.999 207.585 882.909 207.585H863.397Z" fill="#0C0C0C"/>
<path d="M1041.38 92.3057C1051.69 92.3057 1057.83 105.041 1057.83 127.109V172.891C1057.83 194.959 1051.74 207.694 1041.38 207.694H1004.54C1003.45 207.694 1002.86 206.377 1002.86 204.071V96.1483C1002.86 93.8427 1003.45 92.5252 1004.54 92.5252H1041.38V92.3057ZM1017.91 181.016H1036.04C1040.99 181.016 1042.87 177.722 1042.87 168.28V131.391C1042.87 122.278 1041.04 118.655 1036.04 118.655H1017.91V180.906V181.016Z" fill="#0C0C0C"/>
<path d="M1101.46 203.852C1101.46 206.157 1100.81 207.475 1099.68 207.475H1088.19C1087.1 207.475 1086.5 206.157 1086.5 203.852V95.9287C1086.5 93.6231 1087.1 92.3057 1088.19 92.3057H1099.68C1100.76 92.3057 1101.46 93.6231 1101.46 95.9287V203.852Z" fill="#0C0C0C"/>
<path d="M1180.5 92.3057C1181.59 92.3057 1182.18 93.6231 1182.18 95.9287V115.252C1182.18 117.557 1181.59 118.875 1180.5 118.875H1144.99V136.88H1174.7C1175.74 136.88 1176.39 138.198 1176.39 140.503V158.619C1176.39 160.924 1175.74 162.242 1174.7 162.242H1144.99V181.235H1180.5C1181.59 181.235 1182.18 182.553 1182.18 184.858V204.181C1182.18 206.487 1181.59 207.804 1180.5 207.804H1131.72C1130.63 207.804 1130.03 206.487 1130.03 204.181V96.2581C1130.03 93.9525 1130.63 92.635 1131.72 92.635H1180.5V92.3057Z" fill="#0C0C0C"/>
<path d="M1265.38 118.765V141.601C1265.38 160.046 1261.77 169.488 1253 169.488H1252.8L1267.02 203.962C1267.61 205.389 1267.22 207.585 1266.42 207.585H1251.76C1250.38 207.585 1249.78 206.926 1248.94 204.84L1236.21 171.245H1225.81V204.072C1225.81 206.377 1225.17 207.695 1224.03 207.695H1212.54C1211.45 207.695 1210.86 206.377 1210.86 204.072V96.1484C1210.86 93.8429 1211.45 92.5254 1212.54 92.5254H1253C1261.77 92.5254 1265.38 100.32 1265.38 118.875M1225.81 144.675H1245.43C1249.68 144.675 1250.38 143.248 1250.38 135.343V128.317C1250.38 120.522 1249.73 118.985 1245.43 118.985H1225.81V144.785V144.675Z" fill="#0C0C0C"/>
<path d="M951.301 92.3057C951.945 92.3057 952.49 92.635 952.935 93.0742C953.282 93.7329 953.579 94.5015 953.827 95.7091L974.231 203.632C974.429 204.73 974.379 205.608 974.231 206.377C974.032 207.036 973.735 207.475 973.191 207.475H960.612L942.931 116.679L925.252 207.475H912.672C912.177 207.475 911.88 207.036 911.632 206.377C911.385 205.718 911.434 204.73 911.632 203.632L932.036 95.7091C932.234 94.6112 932.482 93.7329 932.928 93.0742C933.274 92.4155 933.819 92.3057 934.562 92.3057H951.45H951.4H951.301Z" fill="#0C0C0C"/>
</svg>
