<svg width="66" height="67" viewBox="0 0 66 67" fill="none" xmlns="http://www.w3.org/2000/svg">
<path d="M32.9545 48.4064L36.0549 51.5069L45.3563 42.2055M19.2173 8.9292H34.5354C40.4908 8.9292 45.3103 13.7487 45.3103 19.7041C45.3103 25.6594 40.4908 30.479 34.5354 30.479H8.44238V19.7041C8.44238 13.7487 13.2619 8.9292 19.2173 8.9292Z" stroke="#3A58ED" stroke-width="2.76279" stroke-miterlimit="10" stroke-linecap="round" stroke-linejoin="round"/>
<path d="M26.8759 21.8834C26.8759 21.8834 26.8452 21.0239 28.641 19.3202C29.2089 18.783 29.7461 17.77 29.7461 16.849C29.7461 15.2681 28.4721 13.9941 26.8912 13.9941C25.3103 13.9941 24.0363 15.2681 24.0363 16.849M26.8452 25.429H26.8605M46.814 36.0811H31.5112C25.5559 36.0811 20.7363 40.9007 20.7363 46.856C20.7363 52.8113 25.5559 57.6309 31.5112 57.6309H57.6042V46.856C57.5889 40.9007 52.7693 36.0811 46.814 36.0811Z" stroke="#3A58ED" stroke-width="2.76279" stroke-miterlimit="10" stroke-linecap="round" stroke-linejoin="round"/>
</svg>
