<svg width="66" height="67" viewBox="0 0 66 67" fill="none" xmlns="http://www.w3.org/2000/svg">
<path d="M37.6046 10.3101H28.3953M16.1162 8.00776C16.1162 6.31232 17.4905 4.93799 19.186 4.93799H46.8139C48.5093 4.93799 49.8837 6.31232 49.8837 8.00776V58.6589C49.8837 60.3544 48.5093 61.7287 46.8139 61.7287H19.186C17.4905 61.7287 16.1162 60.3544 16.1162 58.6589V8.00776Z" stroke="#3A58ED" stroke-width="2.76279" stroke-miterlimit="10" stroke-linecap="round" stroke-linejoin="round"/>
<path d="M43.7441 41.7753C43.7441 38.3846 40.9952 35.6357 37.6045 35.6357H32.9999C29.6092 35.6357 26.8604 38.3846 26.8604 41.7753C26.8604 45.166 29.6092 47.9148 32.9999 47.9148H43.7441V41.7753Z" stroke="#3A58ED" stroke-width="2.76279" stroke-linejoin="round"/>
<path d="M31.4664 41.7754H31.4648M35.3051 41.7754H35.3036M39.1439 41.7754H39.1423" stroke="#3A58ED" stroke-width="3.45349" stroke-miterlimit="10" stroke-linecap="round" stroke-linejoin="round"/>
<path d="M39.9067 56.3569H26.0928" stroke="#3A58ED" stroke-width="2.76279" stroke-miterlimit="10" stroke-linecap="round" stroke-linejoin="round"/>
<path d="M22.2559 24.8915C22.2559 21.5008 25.0047 18.752 28.3954 18.752H33C36.3908 18.752 39.1396 21.5008 39.1396 24.8915C39.1396 28.2822 36.3908 31.031 33 31.031H22.2559V24.8915Z" stroke="#3A58ED" stroke-width="2.76279" stroke-linejoin="round"/>
</svg>
