<svg width="66" height="67" viewBox="0 0 66 67" fill="none" xmlns="http://www.w3.org/2000/svg">
<path d="M33.0003 11.8453C35.1195 11.8453 36.8375 10.1273 36.8375 8.00811C36.8375 5.88889 35.1195 4.1709 33.0003 4.1709C30.8811 4.1709 29.1631 5.88889 29.1631 8.00811C29.1631 10.1273 30.8811 11.8453 33.0003 11.8453Z" stroke="#3A58ED" stroke-width="2.76279" stroke-miterlimit="10" stroke-linecap="round" stroke-linejoin="round"/>
<path d="M25.3252 21.0542C25.3252 18.0873 27.7304 15.6821 30.6973 15.6821H35.3019C38.2689 15.6821 40.674 18.0873 40.674 21.0542V22.5891H25.3252V21.0542Z" stroke="#3A58ED" stroke-width="2.76279" stroke-linejoin="round"/>
<path d="M13.0462 47.1476C15.1654 47.1476 16.8834 45.4296 16.8834 43.3104C16.8834 41.1911 15.1654 39.4731 13.0462 39.4731C10.927 39.4731 9.20898 41.1911 9.20898 43.3104C9.20898 45.4296 10.927 47.1476 13.0462 47.1476Z" stroke="#3A58ED" stroke-width="2.76279" stroke-miterlimit="10" stroke-linecap="round" stroke-linejoin="round"/>
<path d="M5.37207 56.357C5.37207 53.39 7.77723 50.9849 10.7442 50.9849H15.3488C18.3157 50.9849 20.7209 53.39 20.7209 56.357V57.8918H5.37207V56.357Z" stroke="#3A58ED" stroke-width="2.76279" stroke-linejoin="round"/>
<path d="M33.0003 47.1476C35.1195 47.1476 36.8375 45.4296 36.8375 43.3104C36.8375 41.1911 35.1195 39.4731 33.0003 39.4731C30.8811 39.4731 29.1631 41.1911 29.1631 43.3104C29.1631 45.4296 30.8811 47.1476 33.0003 47.1476Z" stroke="#3A58ED" stroke-width="2.76279" stroke-miterlimit="10" stroke-linecap="round" stroke-linejoin="round"/>
<path d="M25.3252 56.357C25.3252 53.39 27.7304 50.9849 30.6973 50.9849H35.3019C38.2689 50.9849 40.674 53.39 40.674 56.357V57.8918H25.3252V56.357Z" stroke="#3A58ED" stroke-width="2.76279" stroke-linejoin="round"/>
<path d="M52.9534 47.1476C55.0726 47.1476 56.7906 45.4296 56.7906 43.3104C56.7906 41.1911 55.0726 39.4731 52.9534 39.4731C50.8342 39.4731 49.1162 41.1911 49.1162 43.3104C49.1162 45.4296 50.8342 47.1476 52.9534 47.1476Z" stroke="#3A58ED" stroke-width="2.76279" stroke-miterlimit="10" stroke-linecap="round" stroke-linejoin="round"/>
<path d="M45.2793 56.357C45.2793 53.39 47.6845 50.9849 50.6514 50.9849H55.256C58.223 50.9849 60.6281 53.39 60.6281 56.357V57.8918H45.2793V56.357Z" stroke="#3A58ED" stroke-width="2.76279" stroke-linejoin="round"/>
<path d="M52.9539 34.8683V34.1008C52.9539 32.4054 51.5795 31.0311 49.8841 31.0311H16.1166C14.4212 31.0311 13.0469 32.4054 13.0469 34.1008V34.8683M33.0004 34.1008V27.1938" stroke="#3A58ED" stroke-width="2.76279" stroke-linecap="round" stroke-linejoin="round"/>
</svg>
