<svg width="68" height="67" viewBox="0 0 68 67" fill="none" xmlns="http://www.w3.org/2000/svg">
<path d="M37.8769 13.1775H30.125M34.0009 17.0535V9.30155M21.5978 4.65039C19.8853 4.65039 18.4971 6.03861 18.4971 7.75117V18.6039C18.4971 20.3164 19.8853 21.7047 21.5978 21.7047H30.3834L34.0009 27.131L37.6185 21.7047H46.404C48.1166 21.7047 49.5048 20.3164 49.5048 18.6039V7.75117C49.5048 6.03861 48.1166 4.65039 46.404 4.65039H21.5978Z" stroke="#3A58ED" stroke-width="2.7907" stroke-miterlimit="10" stroke-linecap="round" stroke-linejoin="round"/>
<mask id="mask0_129_188" style="mask-type:alpha" maskUnits="userSpaceOnUse" x="6" y="30" width="57" height="34">
<path fill-rule="evenodd" clip-rule="evenodd" d="M62.6819 30.2334H6.09277V63.5667H62.6819V30.2334ZM40.9765 38.7605C40.9765 42.6137 37.8529 45.7373 33.9998 45.7373C30.1466 45.7373 27.023 42.6137 27.023 38.7605C27.023 34.9074 30.1466 31.7838 33.9998 31.7838C37.8529 31.7838 40.9765 34.9074 40.9765 38.7605ZM28.5734 49.6132C23.8639 49.6132 20.0463 53.4309 20.0463 58.1404V62.0163H47.9532V58.1404C47.9532 53.4309 44.1356 49.6132 39.4261 49.6132H28.5734Z" fill="#D9D9D9"/>
</mask>
<g mask="url(#mask0_129_188)">
<path d="M18.4959 45.7369C21.0647 45.7369 23.1471 43.6546 23.1471 41.0857C23.1471 38.5169 21.0647 36.4346 18.4959 36.4346C15.9272 36.4346 13.8447 38.5169 13.8447 41.0857C13.8447 43.6546 15.9272 45.7369 18.4959 45.7369Z" stroke="#3A58ED" stroke-width="2.7907" stroke-miterlimit="10" stroke-linecap="round" stroke-linejoin="round"/>
<path d="M8.41699 56.59C8.41699 52.7368 11.5406 49.6133 15.3937 49.6133H21.5953C25.4485 49.6133 28.572 52.7368 28.572 56.59V58.9156H8.41699V56.59Z" stroke="#3A58ED" stroke-width="2.7907" stroke-linejoin="round"/>
<path d="M49.5037 45.7369C52.0725 45.7369 54.1549 43.6546 54.1549 41.0857C54.1549 38.5169 52.0725 36.4346 49.5037 36.4346C46.9349 36.4346 44.8525 38.5169 44.8525 41.0857C44.8525 43.6546 46.9349 45.7369 49.5037 45.7369Z" stroke="#3A58ED" stroke-width="2.7907" stroke-miterlimit="10" stroke-linecap="round" stroke-linejoin="round"/>
<path d="M39.4248 56.59C39.4248 52.7368 42.5484 49.6133 46.4015 49.6133H52.6031C56.4563 49.6133 59.5798 52.7368 59.5798 56.59V58.9156H39.4248V56.59Z" stroke="#3A58ED" stroke-width="2.7907" stroke-linejoin="round"/>
</g>
<path d="M34.0012 45.7357C37.8543 45.7357 40.9779 42.6121 40.9779 38.759C40.9779 34.9058 37.8543 31.7822 34.0012 31.7822C30.148 31.7822 27.0244 34.9058 27.0244 38.759C27.0244 42.6121 30.148 45.7357 34.0012 45.7357Z" stroke="#3A58ED" stroke-width="2.7907" stroke-miterlimit="10" stroke-linecap="round" stroke-linejoin="round"/>
<path d="M20.0479 58.1385C20.0479 53.429 23.8655 49.6113 28.575 49.6113H39.4277C44.1372 49.6113 47.9548 53.429 47.9548 58.1385V62.0144H20.0479V58.1385Z" stroke="#3A58ED" stroke-width="2.7907" stroke-linejoin="round"/>
</svg>
