<svg width="68" height="67" viewBox="0 0 68 67" fill="none" xmlns="http://www.w3.org/2000/svg">
<mask id="mask0_129_204" style="mask-type:alpha" maskUnits="userSpaceOnUse" x="15" y="27" width="48" height="39">
<path d="M15.3936 34.1105H23.4039L28.5718 39.5369L33.7398 34.1105H44.8509C46.5635 34.1105 47.9517 32.7223 47.9517 31.0098V27.1338H62.6804V65.1183H15.3936V34.1105Z" fill="white"/>
</mask>
<g mask="url(#mask0_129_204)">
<path d="M23.1467 30.2334C21.4341 30.2334 20.0459 31.6216 20.0459 33.3342V53.4892C20.0459 55.2018 21.4341 56.59 23.1467 56.59H34.2578L39.4257 62.0163L44.5937 56.59H55.7048C57.4174 56.59 58.8056 55.2018 58.8056 53.4892V33.3342C58.8056 31.6216 57.4174 30.2334 55.7048 30.2334H23.1467Z" stroke="#3A58ED" stroke-width="2.7907" stroke-miterlimit="10" stroke-linecap="round" stroke-linejoin="round"/>
</g>
<path d="M29.5029 50.3879H39.5804M29.5029 44.9615H49.658M29.5029 39.5352H49.658" stroke="#3A58ED" stroke-width="2.7907" stroke-linecap="round"/>
<path d="M12.2932 7.75195C10.5806 7.75195 9.19238 9.14017 9.19238 10.8527V31.0078C9.19238 32.7203 10.5806 34.1085 12.2932 34.1085H23.4043L28.5722 39.5349L33.7401 34.1085H44.8513C46.5639 34.1085 47.9521 32.7203 47.9521 31.0078V10.8527C47.9521 9.14017 46.5639 7.75195 44.8513 7.75195H12.2932Z" stroke="#3A58ED" stroke-width="2.7907" stroke-miterlimit="10" stroke-linecap="round" stroke-linejoin="round"/>
<path d="M28.5728 13.1787L30.851 17.795L35.9453 18.5351L32.259 22.1283L33.1292 27.2021L28.5728 24.8066L24.0163 27.2021L24.8866 22.1283L21.2002 18.5351L26.2945 17.795L28.5728 13.1787Z" stroke="#3A58ED" stroke-width="2.7907" stroke-linecap="round" stroke-linejoin="round"/>
</svg>
