<svg width="68" height="67" viewBox="0 0 68 67" fill="none" xmlns="http://www.w3.org/2000/svg">
<path d="M20.8201 44.9615C23.3889 44.9615 25.4713 42.8792 25.4713 40.3103C25.4713 37.7415 23.3889 35.6592 20.8201 35.6592C18.2513 35.6592 16.1689 37.7415 16.1689 40.3103C16.1689 42.8792 18.2513 44.9615 20.8201 44.9615Z" stroke="#3A58ED" stroke-width="2.7907" stroke-miterlimit="10" stroke-linecap="round" stroke-linejoin="round"/>
<path d="M10.7451 55.8146C10.7451 51.9615 13.8687 48.8379 17.7219 48.8379H23.9234C27.7766 48.8379 30.9002 51.9615 30.9002 55.8146V58.1402H10.7451V55.8146Z" stroke="#3A58ED" stroke-width="2.7907" stroke-linejoin="round"/>
<path d="M47.1775 44.9615C49.7464 44.9615 51.8287 42.8792 51.8287 40.3103C51.8287 37.7415 49.7464 35.6592 47.1775 35.6592C44.6087 35.6592 42.5264 37.7415 42.5264 40.3103C42.5264 42.8792 44.6087 44.9615 47.1775 44.9615Z" stroke="#3A58ED" stroke-width="2.7907" stroke-miterlimit="10" stroke-linecap="round" stroke-linejoin="round"/>
<path d="M37.1025 55.8146C37.1025 51.9615 40.2261 48.8379 44.0793 48.8379H50.2808C54.134 48.8379 57.2576 51.9615 57.2576 55.8146V58.1402H37.1025V55.8146Z" stroke="#3A58ED" stroke-width="2.7907" stroke-linejoin="round"/>
<mask id="mask0_129_217" style="mask-type:alpha" maskUnits="userSpaceOnUse" x="7" y="4" width="34" height="27">
<path d="M40.2295 4.33105H7.08496V30.919H40.2295V26.1148L39.4298 25.5816H32.453C30.7405 25.5816 29.3522 24.1934 29.3522 22.4808V13.9537C29.3522 12.2411 30.7405 10.8529 32.453 10.8529H40.2295V4.33105Z" fill="#D9D9D9"/>
</mask>
<g mask="url(#mask0_129_217)">
<path d="M12.2971 6.97754C10.5845 6.97754 9.19629 8.36576 9.19629 10.0783V19.3806C9.19629 21.0932 10.5845 22.4814 12.2971 22.4814H19.2738V28.683L28.5761 22.4814H35.5529C37.2654 22.4814 38.6537 21.0932 38.6537 19.3806V10.0783C38.6537 8.36576 37.2654 6.97754 35.5529 6.97754H12.2971Z" stroke="#3A58ED" stroke-width="2.7907" stroke-miterlimit="10" stroke-linecap="round" stroke-linejoin="round"/>
</g>
<path d="M32.4494 10.8535C30.7368 10.8535 29.3486 12.2417 29.3486 13.9543V22.4814C29.3486 24.194 30.7368 25.5822 32.4494 25.5822H39.4262L48.7285 31.7837V25.5822H55.7052C57.4178 25.5822 58.806 24.194 58.806 22.4814V13.9543C58.806 12.2417 57.4178 10.8535 55.7052 10.8535H32.4494Z" stroke="#3A58ED" stroke-width="2.7907" stroke-miterlimit="10" stroke-linecap="round" stroke-linejoin="round"/>
</svg>
