<svg width="66" height="67" viewBox="0 0 66 67" fill="none" xmlns="http://www.w3.org/2000/svg">
<path d="M47.52 41.0832H44.2047V48.0209H47.52V41.0832ZM21.8261 18.8428H18.5107V25.7804H21.8261V18.8428Z" stroke="#3A58ED" stroke-width="1.84186" stroke-miterlimit="10" stroke-linecap="round" stroke-linejoin="round"/>
<path d="M21.8269 18.8436H23.4692C24.9427 18.1682 25.8943 16.9557 25.8943 15.3287V12.2129C27.2757 12.2129 28.7185 13.3334 28.7185 14.7301V17.9994H31.6655C32.7706 17.9994 33.6455 18.8743 33.6915 19.918L32.7706 25.6431C32.5097 26.3799 31.819 26.8864 31.0208 26.8864H24.7585L21.8115 25.7813M44.2055 48.0217H42.5631C41.0897 48.6971 40.138 49.9096 40.138 51.5366V54.6524C38.7566 54.6524 37.3138 53.532 37.3138 52.1352V48.8659H34.3669C33.2618 48.8659 32.3869 47.991 32.3408 46.9473L33.2618 41.2222C33.5227 40.4854 34.2134 39.9789 35.0115 39.9789H41.2738L44.2208 41.0841" stroke="#3A58ED" stroke-width="1.84186" stroke-miterlimit="10" stroke-linecap="round" stroke-linejoin="round"/>
<path d="M19.2173 8.92773H34.5354C40.4908 8.92773 45.3103 13.7473 45.3103 19.7026C45.3103 25.658 40.4908 30.4775 34.5354 30.4775H8.44238V19.7026C8.44238 13.7473 13.2619 8.92773 19.2173 8.92773ZM46.8145 36.0798H31.5117C25.5563 36.0798 20.7368 40.8994 20.7368 46.8547C20.7368 52.8101 25.5563 57.6296 31.5117 57.6296H57.6047V46.8547C57.5894 40.8994 52.7698 36.0798 46.8145 36.0798Z" stroke="#3A58ED" stroke-width="1.84186" stroke-miterlimit="10" stroke-linecap="round" stroke-linejoin="round"/>
</svg>
