<svg width="66" height="67" viewBox="0 0 66 67" fill="none" xmlns="http://www.w3.org/2000/svg">
<path d="M23.1455 20.4854L39.3385 36.7705C41.0883 38.5356 43.9432 38.5356 45.7083 36.7705L61.932 20.5007" stroke="#3A58ED" stroke-width="2.76279" stroke-miterlimit="14.8" stroke-linecap="round" stroke-linejoin="round"/>
<path d="M23.1455 20.4854L23.1455 46.164L61.932 46.164L61.932 20.5007L23.1455 20.4854Z" stroke="#3A58ED" stroke-width="2.76279" stroke-miterlimit="14.8" stroke-linecap="round" stroke-linejoin="round"/>
<path d="M23.1453 43.6163L33.383 34.7447C34.1044 34.1154 34.9025 33.5782 35.7313 33.1331M49.3457 33.1177C50.2053 33.5782 51.0034 34.1307 51.7555 34.7754L61.9318 43.5089M16.4839 20.501L4.08203 20.501M16.4839 26.9168L4.08203 26.9168M16.5146 33.2405L4.11273 33.2405M16.5146 39.6563L4.11273 39.6563M16.4839 45.98L4.08203 45.98" stroke="#3A58ED" stroke-width="2.76279" stroke-miterlimit="14.8" stroke-linecap="round" stroke-linejoin="round"/>
</svg>
