<svg width="66" height="67" viewBox="0 0 66 67" fill="none" xmlns="http://www.w3.org/2000/svg">
<mask id="mask0_129_502" style="mask-type:alpha" maskUnits="userSpaceOnUse" x="1" y="17" width="64" height="43">
<path d="M37.6548 17.9189V21.1325L34.5804 25.6038C34.1446 26.2376 33.8903 26.9784 33.8449 27.7461C33.7995 28.5139 33.9648 29.2795 34.3228 29.9602C34.6808 30.6409 35.2181 31.2109 35.8764 31.6085C36.5348 32.0061 37.2893 32.2162 38.0585 32.2162H42.13C43.2671 34.0133 45.1671 35.3735 47.7574 35.3735C50.3477 35.3735 52.2475 34.0133 53.3846 32.2162H57.4579C58.227 32.2162 58.9815 32.0061 59.6399 31.6085C60.2982 31.2109 60.8355 30.6409 61.1935 29.9602C61.5516 29.2795 61.7168 28.5139 61.6714 27.7461C61.626 26.9784 61.3717 26.2376 60.9359 25.6038L57.86 21.1302V17.9189H64.2958V59.5243H1.3623V17.9189H37.6548Z" fill="white"/>
</mask>
<g mask="url(#mask0_129_502)">
<path d="M20.6759 21.1299H45.3031C54.3221 21.1299 61.645 28.4528 61.645 37.4718C61.645 46.4908 54.3221 53.8137 45.3031 53.8137H4.33398V37.4718C4.33398 28.4528 11.6569 21.1299 20.6759 21.1299Z" stroke="#3A58ED" stroke-width="2.76279" stroke-linecap="round" stroke-linejoin="round"/>
</g>
<path d="M48.4098 36.4707H15.6416M28.4594 42.6148H15.6416M48.4098 42.6148H33.7486" stroke="#3A58ED" stroke-width="2.76279" stroke-linecap="round" stroke-linejoin="round"/>
<path d="M45.1084 27.9951C45.1084 29.7387 46.2949 31.1524 47.7576 31.1524C49.2203 31.1524 50.4068 29.7387 50.4068 27.9951" fill="#3A58ED"/>
<path d="M45.1084 27.9951C45.1084 29.7387 46.2949 31.1524 47.7576 31.1524C49.2203 31.1524 50.4068 29.7387 50.4068 27.9951" stroke="#3A58ED" stroke-width="2.76279" stroke-linecap="round" stroke-linejoin="round"/>
<path d="M47.7575 11.1018C44.5097 11.1018 41.8758 13.7341 41.8758 16.9834V22.443L38.0586 27.9947H57.458L53.6407 22.443H53.6392V16.9834C53.6392 13.7356 51.0069 11.1018 47.7575 11.1018ZM47.7575 11.1018V8.59375" stroke="#3A58ED" stroke-width="2.76279" stroke-linecap="round" stroke-linejoin="round"/>
</svg>
