<svg width="66" height="67" viewBox="0 0 66 67" fill="none" xmlns="http://www.w3.org/2000/svg">
<path d="M13.082 35.5204C13.082 35.5204 26.6565 49.3436 31.978 50.8017C35.2319 51.6935 36.2127 50.088 36.2127 50.088M28.0993 41.3499C35.41 49.5523 36.5673 51.4679 38.799 50.266C39.9578 49.6413 40.9386 48.3045 41.3853 47.5462M33.5313 39.0813C40.8435 47.2838 41.9992 49.1993 44.231 47.9975C45.3898 47.3728 46.3706 46.0359 46.8172 45.2777M37.8105 36.228C45.1212 44.4304 46.2785 46.346 48.5102 45.1441C48.7512 45.0137 49.4803 44.4043 49.6844 44.1587C50.8524 42.7589 50.1633 40.8142 48.8417 39.5587C46.0037 36.8665 39.2564 30.8452 35.453 27.7033C35.453 27.7033 30.5966 32.2972 27.1631 32.0746C23.7295 31.852 23.7817 28.463 24.6474 26.5905C25.5131 24.7179 30.5505 19.1447 33.8505 19.1002C37.1505 19.0557 47.5586 21.4179 47.5586 21.4179M17.3106 20.6627H29.9719M53.2407 37.6401L49.646 40.5333" stroke="#3A58ED" stroke-width="2.76279" stroke-linecap="round" stroke-linejoin="round"/>
<path d="M4.60449 15.5834V38.5775H12.2728L17.7109 18.0208C17.7109 18.0208 15.869 16.8742 11.1569 16.027C7.93366 15.4468 4.60449 15.5834 4.60449 15.5834ZM61.4366 15.5834V38.5775H53.7684L47.0901 20.1282C47.0901 20.1282 49.4077 17.2748 54.8827 16.027C58.0783 15.2979 61.4366 15.5834 61.4366 15.5834Z" stroke="#3A58ED" stroke-width="2.76279" stroke-linecap="round" stroke-linejoin="round"/>
<path d="M12.0508 21.4209C12.0508 22.3081 11.3325 23.0264 10.4453 23.0264C9.5597 23.0264 8.83984 22.3081 8.83984 21.4209C8.83984 20.5338 9.55817 19.8154 10.4453 19.8154C11.3325 19.817 12.0508 20.5353 12.0508 21.4209ZM53.9915 21.4209C53.9915 22.3081 54.7098 23.0264 55.597 23.0264C56.4842 23.0264 57.2025 22.3081 57.2025 21.4209C57.2025 20.5338 56.4842 19.817 55.597 19.817C54.7098 19.817 53.9915 20.5353 53.9915 21.4209Z" fill="#3A58ED"/>
</svg>
