<svg width="66" height="67" viewBox="0 0 66 67" fill="none" xmlns="http://www.w3.org/2000/svg">
<mask id="mask0_129_777" style="mask-type:alpha" maskUnits="userSpaceOnUse" x="3" y="15" width="31" height="37">
<path d="M33.0766 15.5289L32.9999 15.5283H8.44173C5.81401 15.5283 3.68359 17.6586 3.68359 20.2865V37.9376C3.68359 40.5655 5.81401 42.6958 8.44173 42.6958H13.3739L20.546 50.5849C20.7752 50.837 21.0754 51.0139 21.407 51.0923C21.7386 51.1706 22.0862 51.1468 22.404 51.0239C22.7219 50.901 22.9951 50.6849 23.1878 50.4038C23.3804 50.1228 23.4836 49.79 23.4836 49.4492V42.6958H28.3989L24.9417 31.7981L30.0068 29.9562L33.0766 33.026V15.5289Z" fill="#D6D6D6"/>
</mask>
<g mask="url(#mask0_129_777)">
<path d="M8.44184 17.2168C6.74641 17.2168 5.37207 18.5911 5.37207 20.2866V37.9377C5.37207 39.6332 6.74641 41.0075 8.44184 41.0075H14.1209L21.7953 49.4494V41.0075H33C34.6954 41.0075 36.0697 39.6332 36.0697 37.9377V20.2866C36.0697 18.5911 34.6954 17.2168 33 17.2168H8.44184Z" stroke="#3A58ED" stroke-width="2.76279" stroke-linejoin="round"/>
</g>
<path d="M36.0691 51.7512V48.6812L32.6231 45.7915C30.2083 43.7665 28.4754 41.0473 27.6598 38.0032L25.0541 28.2788C24.7799 27.2553 25.3872 26.2032 26.4108 25.929C29.4814 25.1062 32.6374 26.9284 33.4601 29.9989L33.7668 31.1435V28.7279M55.2551 51.7512V48.6814L56.843 44.712C57.822 42.2644 58.3249 39.6525 58.3249 37.0164V28.7279" stroke="#3A58ED" stroke-width="2.76279" stroke-linejoin="round"/>
<path d="M33.0596 28.5036L34.1484 32.5672L35.2373 36.631M33.7673 28.7285V11.8447C33.7673 10.1493 35.1416 8.77498 36.8371 8.77498C38.5325 8.77498 39.9068 10.1493 39.9068 11.8447V28.7285V9.54242C39.9068 7.84699 41.2812 6.47266 42.9766 6.47266C44.672 6.47266 46.0464 7.84699 46.0464 9.54242V28.7285V11.8447C46.0464 10.1493 47.4207 8.77498 49.1161 8.77498C50.8116 8.77498 52.1859 10.1493 52.1859 11.8447V28.7285V16.4494C52.1859 14.754 53.5602 13.3796 55.2557 13.3796C56.9511 13.3796 58.3254 14.754 58.3254 16.4494V28.7285" stroke="#3A58ED" stroke-width="2.76279" stroke-linecap="round" stroke-linejoin="round"/>
<path d="M35.3027 51.752H56.0237V57.8915H35.3027V51.752Z" stroke="#3A58ED" stroke-width="2.76279" stroke-linejoin="round"/>
</svg>
