<svg width="66" height="67" viewBox="0 0 66 67" fill="none" xmlns="http://www.w3.org/2000/svg">
<path d="M35.8399 31.8906C35.1185 30.6627 33.5529 29.9106 32.1562 30.371C31.3887 30.6166 30.7441 31.292 30.6673 32.0901C30.345 35.1292 35.978 33.5636 35.9167 36.6641C35.9013 37.2013 35.6097 37.7078 35.2106 38.0455C34.7962 38.3831 34.2743 38.5673 33.7525 38.6441C32.4325 38.8129 31.0818 38.2296 30.2529 37.1859M33.0618 40.7162L33.0618 38.6594M33.0618 30.2329L33.0618 29.1738" stroke="#3A58ED" stroke-width="1.84186" stroke-miterlimit="10" stroke-linecap="round" stroke-linejoin="round"/>
<path d="M44.3273 28.7439C45.0334 30.2327 45.371 31.875 45.371 33.5327C45.371 39.4574 40.9813 45.5816 33.1227 45.5816C22.9771 45.5816 18.4492 35.4053 21.8566 28.575L22.1943 27.7616M40.8892 10.7397L42.7003 4.67691C42.7003 4.67691 39.8301 6.65691 37.7734 6.65691C35.6859 6.65691 34.8878 4.64621 32.9538 4.64621C31.0199 4.64621 29.9455 6.65691 28.1803 6.65691C26.3999 6.67225 23.3455 4.63086 23.3455 4.63086L25.4176 11.369M34.9492 54.8369L25.6478 54.8369C25.0799 54.8369 24.6194 54.3764 24.6194 53.8085C24.6194 52.903 24.9878 52.0895 25.571 51.5062C26.1697 50.9076 26.9831 50.5546 27.8887 50.5546L35.9162 50.5546C37.0673 50.5546 38.2031 50.3857 39.3236 50.1095C43.2069 49.1425 47.7501 49.8485 53.5827 51.8285L53.5827 59.3034L52.4008 59.3034C48.5943 59.3034 44.8031 59.6871 41.0734 60.4546L34.719 61.7592C32.0636 62.2964 29.2855 61.8667 26.9217 60.5467L13.1692 51.5983C12.8929 51.4448 12.7087 51.1992 12.632 50.923C12.5706 50.662 12.5859 50.3857 12.7241 50.1402C13.5683 48.5746 15.5022 47.9913 17.0678 48.8202L24.6348 53.5169" stroke="#3A58ED" stroke-width="1.84186" stroke-miterlimit="10" stroke-linecap="round" stroke-linejoin="round"/>
<path d="M41.9022 10.7393L35.9776 10.7393L25.4329 11.3686L24.7115 11.4146L12.5859 11.4146L12.5859 27.7611L24.7115 27.7611C24.7115 27.7611 27.8273 29.1732 32.4934 29.1732L42.2399 29.1732" stroke="#3A58ED" stroke-width="1.84186" stroke-miterlimit="10" stroke-linecap="round" stroke-linejoin="round"/>
<path d="M39.0479 10.7393L45.832 10.7393C47.2595 10.7393 48.2725 11.7062 48.2725 12.9034C48.2725 14.2541 47.1827 15.3439 45.832 15.3439L42.1023 15.3439M42.7161 19.9639L46.277 19.9639C47.4742 19.9639 48.4412 20.9309 48.4412 22.1281C48.4412 23.4788 47.3514 24.5686 46.0007 24.5686L41.0124 24.5686M41.0279 24.5686L43.146 24.5686C44.4199 24.5686 45.4023 25.5969 45.4023 26.8709C45.4023 28.1448 44.2051 29.1732 42.9311 29.1732L39.0479 29.1732M42.1176 15.3439L46.4153 15.3439C47.6892 15.3439 48.7176 16.3723 48.7176 17.6462C48.7176 18.9202 47.6892 19.9486 46.4153 19.9486L42.7162 19.9486" stroke="#3A58ED" stroke-width="1.84186" stroke-miterlimit="10" stroke-linecap="round" stroke-linejoin="round"/>
</svg>
