<svg width="66" height="67" viewBox="0 0 66 67" fill="none" xmlns="http://www.w3.org/2000/svg">
<path d="M30.729 11.231C30.1458 10.2487 28.8564 9.63475 27.736 10.0031C27.1067 10.2027 26.5848 10.7552 26.5234 11.3999C26.2625 13.871 30.8518 12.5971 30.7904 15.1143C30.7751 15.5441 30.5448 15.9585 30.2071 16.2347C29.8695 16.511 29.4551 16.6645 29.0253 16.7106C27.9509 16.8487 26.8458 16.3729 26.1858 15.5287M28.4727 18.4143V16.7413M28.4727 9.89568V8.22266M42.6706 38.7822H23.3003V43.5096H42.6706V38.7822ZM41.4118 43.5096L40.1532 53.5478C40.0304 53.3482 39.8923 53.1641 39.7234 52.9952C39.2169 52.4887 38.4955 52.1664 37.7127 52.1664H30.9285C29.8848 52.1664 28.8564 52.0436 27.8434 51.7827C27.1067 51.5985 26.3546 51.4757 25.5564 51.4296L24.5588 43.5096H41.4118ZM46.5997 28.1915C44.4662 29.8952 41.7648 30.4171 39.2937 29.8645C39.309 27.332 40.4448 24.8301 42.5783 23.1264C44.7118 21.4227 47.4132 20.9008 49.8844 21.4534C49.869 24.0013 48.7485 26.5031 46.5997 28.1915ZM21.5811 27.3934C23.9755 28.3143 25.6792 30.2329 26.4006 32.4892C24.3439 33.671 21.796 33.9627 19.4016 33.0417C17.0071 32.1208 15.3034 30.2022 14.582 27.9459C16.6388 26.7487 19.1867 26.4724 21.5811 27.3934Z" stroke="#3A58ED" stroke-width="1.84186" stroke-miterlimit="10" stroke-linecap="round" stroke-linejoin="round"/>
<path d="M28.4726 22.0057C33.2706 22.0057 37.16 18.1162 37.16 13.3183C37.16 8.52025 33.2706 4.63086 28.4726 4.63086C23.6747 4.63086 19.7852 8.52025 19.7852 13.3183C19.7852 18.1162 23.6747 22.0057 28.4726 22.0057Z" stroke="#3A58ED" stroke-width="1.84186" stroke-miterlimit="10" stroke-linecap="round" stroke-linejoin="round"/>
<path d="M32.985 38.0304V37.8462C32.985 32.382 32.2483 26.9485 30.7748 21.6992M26.4004 32.4741C32.279 33.9783 32.985 38.7671 32.985 38.7671" stroke="#3A58ED" stroke-width="1.84186" stroke-miterlimit="10" stroke-linecap="round" stroke-linejoin="round"/>
<path d="M32.9854 38.7819C32.9854 38.7819 32.3561 33.3638 39.2938 29.8643M25.5566 51.4294C26.3547 51.4754 27.1068 51.5982 27.8435 51.7824C28.8566 52.0433 29.8849 52.1661 30.9287 52.1661H37.7128C38.4956 52.1661 39.2017 52.4884 39.7235 52.995C39.8924 53.1638 40.0305 53.348 40.1533 53.5475C40.3682 53.9005 40.5063 54.2996 40.537 54.7447L47.5208 50.2475C48.8714 49.5261 50.5752 50.0326 51.2966 51.3833C51.4194 51.5982 51.4347 51.8438 51.3733 52.0587C51.3119 52.3043 51.1431 52.5191 50.9128 52.6419L38.5724 60.8075C36.5156 61.9587 34.1212 62.3424 31.8189 61.8666L26.3087 60.7461C23.0701 60.0861 19.7854 59.7484 16.4854 59.7484H15.457V53.2712C19.417 51.9205 22.7017 51.2452 25.5566 51.4294Z" stroke="#3A58ED" stroke-width="1.84186" stroke-miterlimit="10" stroke-linecap="round" stroke-linejoin="round"/>
<path d="M40.5364 54.7451V55.9064H31.7607" stroke="#3A58ED" stroke-width="1.84186" stroke-miterlimit="10" stroke-linecap="round" stroke-linejoin="round"/>
</svg>
