<svg width="66" height="67" viewBox="0 0 66 67" fill="none" xmlns="http://www.w3.org/2000/svg">
<path d="M41.0588 34.4843L24.9425 50.6007M8.44238 27.9615L33.0005 3.40332L57.5587 27.9615H49.1168V60.194H16.8842V27.9615H8.44238Z" stroke="#3A58ED" stroke-width="2.76279" stroke-linecap="round" stroke-linejoin="round"/>
<path d="M38.3725 50.9843C40.0678 50.9843 41.4423 49.61 41.4423 47.9145C41.4423 46.2191 40.0678 44.8448 38.3725 44.8448C36.6773 44.8448 35.3028 46.2191 35.3028 47.9145C35.3028 49.61 36.6771 50.9843 38.3725 50.9843ZM27.6284 40.2401C29.3236 40.2401 30.698 38.8658 30.698 37.1704C30.698 35.4749 29.3236 34.1006 27.6284 34.1006C25.9329 34.1006 24.5586 35.4749 24.5586 37.1704C24.5586 38.8658 25.9329 40.2401 27.6284 40.2401Z" stroke="#3A58ED" stroke-width="2.76279" stroke-linecap="round" stroke-linejoin="round"/>
</svg>
