<svg width="24" height="14" viewBox="0 0 24 14" fill="none" xmlns="http://www.w3.org/2000/svg">
<path d="M13.815 0.530273H6.89173C6.31731 0.530273 5.8215 0.838645 5.71266 1.26795L4.31592 5.84516H18.2471L14.8913 1.03213C14.6857 0.723762 14.2685 0.530273 13.815 0.530273Z" stroke="white" stroke-width="0.725581" stroke-miterlimit="10" stroke-linecap="round" stroke-linejoin="round"/>
<path d="M22.298 7.34473H21.397C21.1129 7.34473 20.8589 7.45961 20.6715 7.64705C20.484 7.83449 20.3691 8.08845 20.3691 8.37263C20.3691 8.93496 20.8287 9.39449 21.391 9.39449H23.338" stroke="white" stroke-width="0.725581" stroke-miterlimit="10" stroke-linecap="round" stroke-linejoin="round"/>
<path d="M1.26855 9.27344H2.87693" stroke="white" stroke-width="0.725581" stroke-miterlimit="10" stroke-linecap="round" stroke-linejoin="round"/>
<path d="M13.9658 5.84497V0.536133" stroke="white" stroke-width="0.725581" stroke-miterlimit="10" stroke-linecap="round" stroke-linejoin="round"/>
<path d="M6.67383 0.54248V5.83318" stroke="white" stroke-width="0.725581" stroke-miterlimit="10" stroke-linecap="round" stroke-linejoin="round"/>
<path d="M16.2213 11.5532H8.40918" stroke="white" stroke-width="0.725581" stroke-miterlimit="10" stroke-linecap="round" stroke-linejoin="round"/>
<path d="M4.55181 11.5531H1.26855V9.27359V9.01359C1.26855 7.26615 2.68949 5.84521 4.43693 5.84521H18.9365C21.4337 5.84521 23.4593 7.8708 23.4593 10.368V11.5531H20.0913" stroke="white" stroke-width="0.725581" stroke-miterlimit="10" stroke-linecap="round" stroke-linejoin="round"/>
<path d="M6.48059 13.4817C7.54587 13.4817 8.40943 12.6181 8.40943 11.5529C8.40943 10.4876 7.54587 9.62402 6.48059 9.62402C5.41532 9.62402 4.55176 10.4876 4.55176 11.5529C4.55176 12.6181 5.41532 13.4817 6.48059 13.4817Z" stroke="white" stroke-width="0.725581" stroke-miterlimit="10" stroke-linecap="round" stroke-linejoin="round"/>
<path d="M18.1564 13.4817C19.2217 13.4817 20.0852 12.6181 20.0852 11.5529C20.0852 10.4876 19.2217 9.62402 18.1564 9.62402C17.0911 9.62402 16.2275 10.4876 16.2275 11.5529C16.2275 12.6181 17.0911 13.4817 18.1564 13.4817Z" stroke="white" stroke-width="0.725581" stroke-miterlimit="10" stroke-linecap="round" stroke-linejoin="round"/>
<path d="M12.6357 8.13672H11.2812" stroke="white" stroke-width="0.725581" stroke-miterlimit="10" stroke-linecap="round" stroke-linejoin="round"/>
<path d="M6.45117 11.5444H6.45238" stroke="white" stroke-width="0.725581" stroke-linecap="round" stroke-linejoin="round"/>
<path d="M18.125 11.5444H18.1262" stroke="white" stroke-width="0.725581" stroke-linecap="round" stroke-linejoin="round"/>
</svg>
