<svg width="21" height="18" viewBox="0 0 21 18" fill="none" xmlns="http://www.w3.org/2000/svg">
<path d="M14.5245 1.43629C14.5245 1.3728 14.4568 1.3208 14.3733 1.3208C14.2899 1.3208 14.2222 1.3722 14.2222 1.43629C14.2222 1.49978 14.2899 1.55178 14.3733 1.55178C14.4562 1.55117 14.5245 1.49978 14.5245 1.43629Z" stroke="white" stroke-width="0.725581" stroke-linecap="round" stroke-linejoin="round"/>
<path d="M17.6853 4.24609H12.8027V8.27186H19.8639" stroke="white" stroke-width="0.725581" stroke-linecap="round" stroke-linejoin="round"/>
<path d="M18.6131 14.8067L20.0449 14.8036V8.34959L16.7973 2.70215H12.7836H0.65918V14.8036L1.97067 14.8" stroke="white" stroke-width="0.725581" stroke-linecap="round" stroke-linejoin="round"/>
<path d="M6.33691 14.8057L12.7837 14.8033L14.2161 14.8003" stroke="white" stroke-width="0.725581" stroke-linecap="round" stroke-linejoin="round"/>
<path d="M19.7426 12.6092H19.4481C18.9777 12.6092 18.5962 12.2276 18.5962 11.7572C18.5962 11.2868 18.9777 10.9053 19.4481 10.9053H19.7426" stroke="white" stroke-width="0.725581" stroke-linecap="round" stroke-linejoin="round"/>
<path d="M2.11073 11.73H0.700684" stroke="white" stroke-width="0.725581" stroke-linecap="round" stroke-linejoin="round"/>
<path d="M16.8913 14.8041C16.8913 15.0768 16.67 15.2981 16.3973 15.2981C16.1246 15.2981 15.9033 15.0768 15.9033 14.8041C15.9033 14.5314 16.1246 14.3101 16.3973 14.3101C16.67 14.3101 16.8913 14.5314 16.8913 14.8041Z" fill="white"/>
<path d="M18.3235 14.8039C18.3235 15.868 17.4613 16.7303 16.3971 16.7303C15.3329 16.7303 14.4707 15.868 14.4707 14.8039C14.4707 13.7397 15.3329 12.8774 16.3971 12.8774C17.4613 12.8774 18.3235 13.7403 18.3235 14.8039Z" stroke="white" stroke-width="0.725581" stroke-linecap="round" stroke-linejoin="round"/>
<path d="M6.10821 14.8039C6.10821 15.868 5.24598 16.7303 4.18179 16.7303C3.1176 16.7303 2.25537 15.868 2.25537 14.8039C2.25537 13.7397 3.1176 12.8774 4.18179 12.8774C5.24598 12.8774 6.10821 13.7403 6.10821 14.8039Z" stroke="white" stroke-width="0.725581" stroke-linecap="round" stroke-linejoin="round"/>
<path d="M4.67599 14.8041C4.67599 15.0768 4.45469 15.2981 4.18199 15.2981C3.90929 15.2981 3.68799 15.0768 3.68799 14.8041C3.68799 14.5314 3.90929 14.3101 4.18199 14.3101C4.45469 14.3101 4.67599 14.5314 4.67599 14.8041Z" fill="white"/>
<path d="M13.5928 1.41943H15.2066" stroke="white" stroke-width="0.725581" stroke-linecap="round" stroke-linejoin="round"/>
<path d="M5.52393 4.25244V8.16151" stroke="white" stroke-width="0.725581" stroke-linecap="round" stroke-linejoin="round"/>
<path d="M7.47889 6.20654H3.56982" stroke="white" stroke-width="0.725581" stroke-linecap="round" stroke-linejoin="round"/>
</svg>
