<svg width="23" height="20" viewBox="0 0 23 20" fill="none" xmlns="http://www.w3.org/2000/svg">
<path d="M6.01313 13.6855C6.01313 13.6855 5.58383 13.7823 5.35406 14.0665C4.99127 14.5139 5.00336 15.2516 6.26709 15.2516H16.8666" stroke="white" stroke-width="1.08837" stroke-miterlimit="14.8" stroke-linecap="round" stroke-linejoin="round"/>
<path d="M7.04714 15.2573C7.97226 15.2573 8.72807 16.0071 8.72807 16.9383C8.72807 17.8634 7.9783 18.6192 7.04714 18.6192C6.11598 18.6192 5.36621 17.8694 5.36621 16.9383C5.37226 16.0071 6.12203 15.2573 7.04714 15.2573ZM16.9755 15.2573C17.9006 15.2573 18.6564 16.0071 18.6564 16.9383C18.6564 17.8634 17.9067 18.6192 16.9755 18.6192C16.0504 18.6192 15.2946 17.8694 15.2946 16.9383C15.3006 16.0071 16.0504 15.2573 16.9755 15.2573Z" stroke="white" stroke-width="1.08837" stroke-miterlimit="14.8"/>
<path d="M0.867676 1.38086H2.40349C3.25 1.38086 4.10861 2.37249 4.31419 3.58784L6.01326 13.6855M6.01326 13.6855C6.21279 13.5888 7.08954 13.6009 8.31698 13.4618L17.1267 12.4581C18.3542 12.319 19.63 11.2427 19.9747 10.0576L21.1114 6.14551C21.456 4.96039 21.7584 3.91435 21.7886 3.81156C21.8188 3.70877 21.7826 3.62412 21.704 3.62412H19.3277L4.32023 3.61807M6.01326 13.6855C6.01326 13.6855 5.58395 13.7823 5.35419 14.0664" stroke="white" stroke-width="1.08837" stroke-miterlimit="14.8" stroke-linecap="round" stroke-linejoin="round"/>
</svg>
