<svg width="20" height="20" viewBox="0 0 20 20" fill="none" xmlns="http://www.w3.org/2000/svg">
<path d="M6.80011 9.72097C5.20371 10.213 3.39453 9.82703 2.13069 8.56318C0.866848 7.29934 0.480899 5.49016 0.972904 3.8937L3.40348 6.32428C3.76724 6.6881 4.35695 6.68822 4.72059 6.32458L6.47644 4.56874C6.84008 4.2051 6.83995 3.61538 6.47614 3.25163L4.04556 0.821049C5.64202 0.329044 7.4512 0.714992 8.71504 1.97883C9.97888 3.24268 10.3648 5.05185 9.87283 6.64825L18.201 14.9764C19.0256 15.801 19.0258 17.1377 18.2016 17.9619L18.1138 18.0497C17.2895 18.874 15.9529 18.8737 15.1283 18.0491L6.80011 9.72097Z" stroke="white" stroke-width="1.08837" stroke-linejoin="round"/>
<path d="M16.1484 15.9106L16.5332 16.2954" stroke="white" stroke-width="1.63256" stroke-linecap="round"/>
</svg>
